<?xml version="1.0" encoding="utf-8"?>
<!-- Generator: Adobe Illustrator 17.1.0, SVG Export Plug-In . SVG Version: 6.00 Build 0)  -->
<!DOCTYPE svg PUBLIC "-//W3C//DTD SVG 1.1//EN" "http://www.w3.org/Graphics/SVG/1.1/DTD/svg11.dtd">
<svg version="1.1" id="Layer_1" xmlns="http://www.w3.org/2000/svg" xmlns:xlink="http://www.w3.org/1999/xlink" x="0px" y="0px"
	 viewBox="0 0 80 80" enable-background="new 0 0 80 80" xml:space="preserve">
<g>
	<path fill="#FFFFFF" d="M40,0C17.9,0,0,17.9,0,40c0,22.1,17.9,40,40,40s40-17.9,40-40C80,17.9,62.1,0,40,0z M40,75.9
		C20.2,75.9,4.1,59.8,4.1,40C4.1,20.2,20.2,4.1,40,4.1c19.8,0,35.9,16.1,35.9,35.9C75.9,59.8,59.8,75.9,40,75.9z"/>
	<path fill="#FFFFFF" d="M59.4,35.2c-0.5,0-0.9,0.2-1.2,0.5c-0.3,0.3-0.5,0.7-0.5,1.2c0,0.5,0.2,0.9,0.5,1.2
		c0.3,0.3,0.7,0.5,1.2,0.5c0.5,0,0.9-0.2,1.2-0.5c0.3-0.3,0.5-0.7,0.5-1.2c0-0.5-0.2-0.9-0.5-1.2C60.3,35.3,59.9,35.2,59.4,35.2z"/>
	<path fill="#FFFFFF" d="M24.8,39.4c-0.6-0.6-1.2-1.1-2-1.4c-0.7-0.4-1.5-0.6-2.3-0.7l5.8-7.2v-0.2H11.1v3.6h8.2L14,40.1l0.3,0.6
		c0.4-0.1,0.8-0.3,1.4-0.3c0.5-0.1,1.2-0.1,2-0.1c1.2,0,2.3,0.3,3.2,1c0.9,0.7,1.4,1.7,1.4,3c0,1.4-0.4,2.4-1.1,3.1
		c-0.7,0.7-1.8,1-3.1,1c-1.3,0-2.3-0.3-3.1-1c-0.8-0.7-1.5-1.5-1.9-2.5l-3.6,1.8c0.3,0.6,0.7,1.3,1.1,1.9c0.5,0.6,1.1,1.2,1.8,1.7
		c0.7,0.5,1.6,0.9,2.5,1.3c1,0.3,2,0.5,3.2,0.5c1.4,0,2.7-0.2,3.8-0.6c1.1-0.4,2-1,2.7-1.7c0.7-0.7,1.2-1.5,1.6-2.5
		c0.4-0.9,0.5-1.9,0.5-3c0-1-0.2-1.9-0.5-2.7C25.8,40.7,25.4,40,24.8,39.4z"/>
	<path fill="#FFFFFF" d="M43.4,38.9c-0.7-0.6-1.5-1.1-2.4-1.5c-0.9-0.4-1.9-0.5-2.9-0.5c-0.6,0-1.1,0.1-1.5,0.2l5.6-7.3h-4.7
		L32,37.2c-1,1.3-1.8,2.5-2.2,3.7C29.3,42,29,43.2,29,44.3c0,1.2,0.2,2.3,0.7,3.2c0.4,0.9,1,1.7,1.8,2.4c0.8,0.6,1.6,1.1,2.6,1.5
		c1,0.3,2.1,0.5,3.2,0.5c1.1,0,2.2-0.2,3.2-0.5c1-0.4,1.9-0.9,2.6-1.5c0.8-0.7,1.4-1.5,1.8-2.4c0.4-0.9,0.7-2,0.7-3.2
		c0-1.1-0.2-2.1-0.6-3C44.6,40.4,44.1,39.6,43.4,38.9z M40.2,47.1c-0.7,0.7-1.6,1.1-2.9,1.1c-1.2,0-2.2-0.4-2.9-1.1
		c-0.7-0.7-1.1-1.7-1.1-2.8c0-1.2,0.3-2.2,1-2.9c0.7-0.8,1.6-1.1,2.9-1.1c1.2,0,2.1,0.4,2.8,1.2c0.7,0.8,1.1,1.7,1.1,2.9
		C41.2,45.4,40.9,46.3,40.2,47.1z"/>
	<path fill="#FFFFFF" d="M67.4,32.8c-1-1-2.2-1.8-3.6-2.3c-1.4-0.6-2.8-0.8-4.3-0.8c-1.5,0-3,0.3-4.3,0.8c-1.4,0.6-2.6,1.3-3.6,2.3
		c-1,1-1.9,2.2-2.5,3.6c-0.6,1.4-0.9,2.8-0.9,4.4c0,1.6,0.3,3.1,0.9,4.4c0.6,1.4,1.4,2.5,2.5,3.6c1,1,2.2,1.8,3.6,2.4
		c1.4,0.6,2.8,0.9,4.3,0.9c1.5,0,3-0.3,4.3-0.9c1.4-0.6,2.6-1.4,3.6-2.4c1-1,1.9-2.2,2.5-3.6c0.6-1.4,0.9-2.8,0.9-4.4
		c0-1.6-0.3-3.1-0.9-4.4C69.2,35,68.4,33.8,67.4,32.8z M65.9,43.8c-0.3,0.9-0.8,1.7-1.4,2.4c-0.6,0.7-1.3,1.2-2.2,1.5
		C61.9,47.8,61.4,48,61,48v-8.5h-3.2V48c-0.4-0.1-0.8-0.2-1.2-0.4c-0.8-0.4-1.6-0.9-2.2-1.5c-0.6-0.7-1.1-1.4-1.4-2.4
		c-0.3-0.9-0.5-1.9-0.5-3.1c0-1.1,0.2-2.1,0.5-3c0.3-0.9,0.8-1.7,1.4-2.4c0.6-0.7,1.3-1.2,2.2-1.5c0.8-0.4,1.8-0.5,2.8-0.5
		c1,0,1.9,0.2,2.8,0.5c0.8,0.4,1.6,0.9,2.2,1.5c0.6,0.7,1.1,1.4,1.4,2.4c0.3,0.9,0.5,1.9,0.5,3C66.4,41.9,66.2,42.9,65.9,43.8z"/>
	<path fill="#FFFFFF" d="M70.7,29.6L70.7,29.6c-0.7,0-1.2,0.5-1.2,1.2c0,0.7,0.5,1.2,1.2,1.2c0.7,0,1.2-0.5,1.2-1.2
		C71.9,30.1,71.4,29.6,70.7,29.6z M70.7,31.7c-0.5,0-0.9-0.4-0.9-1c0-0.5,0.4-1,0.9-1h0c0.5,0,0.9,0.4,0.9,1
		C71.6,31.3,71.2,31.8,70.7,31.7z"/>
	<path fill="#FFFFFF" d="M70.9,30.8L70.9,30.8c0.1-0.1,0.2-0.2,0.2-0.3c0-0.1-0.1-0.2-0.1-0.3c-0.1-0.1-0.2-0.1-0.4-0.1
		c-0.2,0-0.4,0-0.5,0v1.2h0.3v-0.5h0.1c0.2,0,0.2,0.1,0.2,0.2c0,0.1,0.1,0.2,0.1,0.3h0.3c0,0-0.1-0.1-0.1-0.3
		C71.1,30.9,71.1,30.9,70.9,30.8z M70.6,30.7h-0.1v-0.3c0,0,0.1,0,0.2,0c0.2,0,0.3,0.1,0.3,0.2C70.9,30.7,70.8,30.7,70.6,30.7z"/>
</g>
</svg>
