<?xml version="1.0" encoding="utf-8"?>
<!-- Generator: Adobe Illustrator 17.1.0, SVG Export Plug-In . SVG Version: 6.00 Build 0)  -->
<!DOCTYPE svg PUBLIC "-//W3C//DTD SVG 1.1//EN" "http://www.w3.org/Graphics/SVG/1.1/DTD/svg11.dtd">
<svg version="1.1" id="Layer_1" xmlns="http://www.w3.org/2000/svg" xmlns:xlink="http://www.w3.org/1999/xlink" x="0px" y="0px"
	 viewBox="0 0 1111.4 626.4" enable-background="new 0 0 1111.4 626.4" xml:space="preserve">
<g>
	<rect x="777" y="423.2" fill="#874789" width="8" height="75.3"/>
</g>
<path fill="#874789" d="M634.3,243.2v-50.6v0c0-34.3,27.8-62.1,62.1-62.1c34.3,0,62.1,27.8,62.1,62.1v0v50.6L634.3,243.2z"/>
<g>
	<path fill="#874789" d="M758.4,240.7v1.1l353,189.7l-228.8-24.1c-22.9,12.6-59.9,20.7-87.9,20.7c-88.6,0-160.3-71.8-160.3-160.3
		v-15.5v-11.4L758.4,240.7z"/>
</g>
<g>
	<path fill="#643666" d="M859.8,417.1c-70.7-13-102.7-83.8-102.7-158.2V243l167.2,149.8L859.8,417.1z"/>
</g>
<g>
	<path fill="#A158A5" d="M884.5,408.6c-70.7-13-126.1-75.6-126.1-150.1v-15.9l302.6,99.5L884.5,408.6z"/>
</g>
<g>
	<polygon fill="#955299" points="757.4,242.1 983,370.8 1060,341.1 	"/>
</g>
<polygon fill="#955299" points="757.4,243.7 983.6,297.2 950.2,312.9 "/>
<g>
	<polygon fill="#643666" points="665.3,203.5 634.3,239.5 634.3,224.2 	"/>
</g>
<g>
	<polygon fill="#F3C143" points="633.7,183.2 664.7,203.9 601.9,203.9 	"/>
</g>
<g>
	<polygon fill="#CBA042" points="601.9,203.9 633.7,224.6 664.7,203.9 	"/>
</g>
<g>
	<path fill="#643666" d="M696.5,181.4c-1.9,0-3.4-1.5-3.4-3.4c0-3.5-2.9-6.4-6.4-6.4c-3.5,0-6.4,2.9-6.4,6.4c0,1.9-1.5,3.4-3.4,3.4
		c-1.9,0-3.4-1.5-3.4-3.4c0-7.3,6-13.3,13.3-13.3c7.3,0,13.3,6,13.3,13.3C700,179.9,698.4,181.4,696.5,181.4z"/>
</g>
<circle fill="#FFFFFF" cx="559.2" cy="76.3" r="76.3"/>
<g>
	<polyline fill="#F91259" points="334,492.5 334,417.2 325.9,417.2 325.9,492.5 	"/>
	<path fill="#F91259" d="M353,238.4v-51.7v0c0-34.3,27.8-62.1,62.1-62.1s62.1,27.8,62.1,62.1v0v51.7L353,238.4z"/>
	<g>
		<path fill="#F91259" d="M353,237.4L0,427l228.8-24.1c22.9,12.6,59.9,20.7,87.9,20.7c88.6,0,160.3-71.8,160.3-160.3v-15.5v-10.3
			L353,237.4z"/>
	</g>
	<g>
		<path fill="#D81259" d="M250.2,412.1c70.7-13,102.7-83.8,102.7-158.2V238L207.2,395.9L250.2,412.1z"/>
	</g>
	<g>
		<g>
			<path fill="#FF4085" d="M226.9,403.3c70.7-13,126.1-75.6,126.1-150.1v-15.9L50.4,336.8L226.9,403.3z"/>
		</g>
		<g>
			<polygon fill="#F73777" points="353,237.4 130,366.8 50.4,336.8 			"/>
		</g>
		<polygon fill="#F73777" points="353,237.4 127.4,291.3 160.8,307 		"/>
	</g>
	<g>
		<polygon fill="#D81259" points="446.1,197 477.1,232.9 477.1,217.7 		"/>
	</g>
	<g>
		<polygon fill="#F3C143" points="477.1,176.3 446.1,197 508.9,197 		"/>
	</g>
	<g>
		<polygon fill="#CBA042" points="508.9,197 477.1,217.7 446.1,197 		"/>
	</g>
	<g>
		<path fill="#7F0A34" d="M415.5,175.5c1.9,0,3.4-1.5,3.4-3.4c0-3.5,2.9-6.4,6.4-6.4c3.5,0,6.4,2.9,6.4,6.4c0,1.9,1.5,3.4,3.4,3.4
			c1.9,0,3.4-1.5,3.4-3.4c0-7.3-6-13.3-13.3-13.3c-7.3,0-13.3,6-13.3,13.3C412.1,173.9,413.6,175.5,415.5,175.5z"/>
	</g>
</g>
<g>
	<polygon fill="#DBD9D9" points="908.2,594.8 875.9,626.4 875.9,594.1 	"/>
	<g>
		<polygon fill="#DBD9D9" points="865.2,562.5 828.7,594.8 828.7,562.5 		"/>
	</g>
	<g>
		<polygon fill="#E8E7E7" points="828.7,594.8 908.2,594.8 908.2,562.5 908.2,527.8 865.2,527.8 865.2,562.5 		"/>
	</g>
	<g>
		<polygon fill="#DBD9D9" points="250.1,562.5 286.6,594.8 286.6,562.5 		"/>
	</g>
	<g>
		<rect x="250.1" y="492.5" fill="#FFFFFF" width="615.1" height="69.9"/>
	</g>
	<g>
		<path fill="#F91259" d="M840.4,522.8c-0.4-2.9-2.8-5.2-5.7-5.7c-2.4-0.4-4.6,0.5-6,2c-1.5-1.5-3.7-2.4-6-2
			c-2.9,0.4-5.2,2.8-5.7,5.7c-0.4,2.4,0.5,4.6,2,6l0,0l9.7,9.7l9.7-9.7l0,0C839.9,527.4,840.8,525.2,840.4,522.8z"/>
	</g>
	<g>
		<path fill="#F91259" d="M300,522.8c-0.4-2.9-2.8-5.2-5.7-5.7c-2.4-0.4-4.6,0.5-6,2c-1.5-1.5-3.7-2.4-6-2c-2.9,0.4-5.2,2.8-5.7,5.7
			c-0.4,2.4,0.5,4.6,2,6l0,0l9.7,9.7l9.7-9.7l0,0C299.5,527.4,300.4,525.2,300,522.8z"/>
	</g>
	<path fill="#FFFFFF" d="M784.7,537.3"/>
	<polygon fill="#DBD9D9" points="207.2,594.8 239.5,626.4 239.5,594.1 	"/>
	<g>
		<polygon fill="#E8E7E7" points="286.6,594.8 207.2,594.8 207.2,562.5 207.2,527.8 250.1,527.8 250.1,562.5 		"/>
	</g>
</g>
<g>
	<path fill="#F91259" d="M431.2,528h5.3v-4.1h3.6v4.1h2.7v3.4H440v5.6h-3.6v-5.6H427V528l8.2-13.3h4.1L431.2,528z"/>
	<path fill="#F91259" d="M447.9,534.1c-1.5-2.1-2.3-4.9-2.3-8.4c0-3.5,0.8-6.3,2.3-8.4c1.5-2.1,3.8-3.1,6.8-3.1c3,0,5.3,1,6.8,3.1
		c1.5,2.1,2.3,4.9,2.3,8.4c0,3.5-0.8,6.3-2.3,8.4s-3.8,3.1-6.8,3.1C451.6,537.2,449.4,536.1,447.9,534.1z M450.5,519.7
		c-0.9,1.5-1.3,3.5-1.3,6s0.4,4.5,1.3,6s2.2,2.3,4.1,2.3c1.9,0,3.2-0.8,4.1-2.3c0.9-1.5,1.3-3.5,1.3-6s-0.4-4.5-1.3-6
		c-0.9-1.5-2.2-2.3-4.1-2.3C452.8,517.4,451.4,518.2,450.5,519.7z"/>
	<path fill="#F91259" d="M475.4,518.1h-8v-3.3h13v2.9l-5.4,6c2,0.1,3.6,0.7,4.8,1.9c1.1,1.2,1.7,2.7,1.7,4.4c0,2.3-0.8,4-2.3,5.3
		c-1.5,1.3-3.4,1.9-5.7,1.9c-2.5,0-5-0.8-7.3-2.3l1.6-3c1.8,1.3,3.7,1.9,5.7,1.9c1.3,0,2.4-0.3,3.2-0.9c0.8-0.6,1.3-1.5,1.3-2.7
		c0-1-0.5-1.9-1.4-2.6c-0.9-0.7-2.2-1-3.9-1c-0.8,0-1.6,0.1-2.4,0.3v-2.9L475.4,518.1z"/>
	<path fill="#F91259" d="M509.5,514.8l0,3.5h-11v6.1h10.5v3.5h-10.5v9.1h-3.7v-22.2H509.5z"/>
	<path fill="#F91259" d="M532.4,533.9c-2.2,2.2-5,3.3-8.3,3.3s-6.1-1.1-8.3-3.3c-2.2-2.2-3.4-4.9-3.4-8.2c0-3.3,1.1-6,3.4-8.2
		c2.2-2.2,5-3.3,8.3-3.3s6.1,1.1,8.3,3.3s3.4,4.9,3.4,8.2C535.7,528.9,534.6,531.7,532.4,533.9z M529.6,520
		c-1.5-1.6-3.4-2.3-5.6-2.3c-2.2,0-4.1,0.8-5.6,2.3c-1.5,1.6-2.3,3.5-2.3,5.7c0,2.2,0.8,4.1,2.3,5.7c1.5,1.6,3.4,2.3,5.6,2.3
		c2.2,0,4.1-0.8,5.6-2.3c1.5-1.6,2.3-3.5,2.3-5.7C531.9,523.5,531.1,521.6,529.6,520z"/>
	<path fill="#F91259" d="M558.5,522c0,3.7-1.6,6-4.8,6.9l5.8,8.1h-4.8l-5.3-7.5h-1h-3.9v7.5h-3.7v-22.2h8.2c3.4,0,5.8,0.6,7.3,1.7
		S558.5,519.4,558.5,522z M554.6,522c0-1.5-0.4-2.5-1.2-3c-0.8-0.5-2.2-0.8-4.2-0.8h-4.8v7.9h4.7c2.1,0,3.6-0.3,4.3-1
		S554.6,523.4,554.6,522z"/>
	<path fill="#F91259" d="M574.4,536.9h-9.7v-22.2h8.6c1.5,0,2.8,0.2,3.9,0.5c1.1,0.4,1.9,0.8,2.4,1.5c0.5,0.6,0.9,1.2,1.2,1.9
		c0.2,0.6,0.3,1.3,0.3,2c0,0.6-0.1,1.2-0.3,1.8c-0.2,0.5-0.4,1-0.5,1.2c-0.2,0.3-0.5,0.6-0.9,0.9c-0.4,0.3-0.7,0.5-0.8,0.6
		c-0.1,0.1-0.4,0.2-0.8,0.4c1.4,0.3,2.5,0.9,3.3,1.9c0.8,0.9,1.2,2.1,1.2,3.5c0,0.7-0.1,1.4-0.4,2.1c-0.2,0.7-0.7,1.3-1.2,2
		c-0.6,0.6-1.4,1.1-2.5,1.5S575.9,536.9,574.4,536.9z M568.4,524h4.8c2.7,0,4.1-0.9,4.1-2.8c0-1.1-0.3-1.8-1-2.3s-1.7-0.7-3-0.7
		h-4.8V524z M568.4,533.5h5.9c1.4,0,2.4-0.2,3.2-0.7c0.7-0.4,1.1-1.3,1.1-2.5c0-2-1.6-2.9-4.7-2.9h-5.4V533.5z"/>
	<path fill="#F91259" d="M587.9,514.8h3.7v22.2h-3.7V514.8z"/>
	<path fill="#F91259" d="M618.6,525.8c0,3.4-1,6.1-3.1,8.1c-2.1,2-5.2,3-9.5,3h-7.4v-22.2h7.6c4,0,7,1,9.2,2.9
		S618.6,522.3,618.6,525.8z M614.8,525.8c0-5.1-2.9-7.6-8.7-7.6h-3.7v15.2h4.2c2.7,0,4.7-0.6,6.2-1.9
		C614.1,530.2,614.8,528.3,614.8,525.8z"/>
	<path fill="#F91259" d="M643.6,525.8c0,3.4-1,6.1-3.1,8.1c-2.1,2-5.2,3-9.5,3h-7.4v-22.2h7.6c4,0,7,1,9.2,2.9
		S643.6,522.3,643.6,525.8z M639.8,525.8c0-5.1-2.9-7.6-8.7-7.6h-3.7v15.2h4.2c2.7,0,4.7-0.6,6.2-1.9
		C639.1,530.2,639.8,528.3,639.8,525.8z"/>
	<path fill="#F91259" d="M664.3,514.8v3.5h-11.8v5.9h10.6v3.3h-10.6v5.9h12.2v3.5h-16v-22.2H664.3z"/>
	<path fill="#F91259" d="M687,531.3v-16.6h3.7v22.2h-4.1l-12.6-16.2v16.2h-3.7v-22.2h3.7L687,531.3z"/>
</g>
<line fill="none" stroke="#F91259" stroke-width="11" stroke-linecap="round" stroke-linejoin="round" stroke-miterlimit="10" x1="580.8" y1="54.7" x2="537.6" y2="97.9"/>
<line fill="none" stroke="#F91259" stroke-width="11" stroke-linecap="round" stroke-linejoin="round" stroke-miterlimit="10" x1="580.8" y1="97.9" x2="537.6" y2="54.7"/>
</svg>
