<?xml version="1.0" encoding="utf-8"?>
<!-- Generator: Adobe Illustrator 17.1.0, SVG Export Plug-In . SVG Version: 6.00 Build 0)  -->
<!DOCTYPE svg PUBLIC "-//W3C//DTD SVG 1.1//EN" "http://www.w3.org/Graphics/SVG/1.1/DTD/svg11.dtd">
<svg version="1.1" id="Layer_1" xmlns="http://www.w3.org/2000/svg" xmlns:xlink="http://www.w3.org/1999/xlink" x="0px" y="0px"
	 viewBox="0 0 1101.6 616.5" enable-background="new 0 0 1101.6 616.5" xml:space="preserve">
<g>
	<circle fill="#FFFFFF" cx="549.7" cy="75.1" r="75.1"/>
</g>
<g>
	<g>
		<polyline fill="#F91259" points="328.7,484.8 328.7,410.7 320.8,410.7 320.8,484.8 		"/>
	</g>
	<g>
		<path fill="#F91259" d="M347.4,234.6v-50.9v0c0-33.7,27.4-61.1,61.1-61.1s61.1,27.4,61.1,61.1v0v50.9L347.4,234.6z"/>
	</g>
	<g>
		<g>
			<path fill="#F91259" d="M347.4,233.6L0,420.3l225.2-23.8c22.6,12.4,58.9,20.4,86.5,20.4c87.2,0,157.8-70.7,157.8-157.8v-15.3
				v-10.2L347.4,233.6z"/>
		</g>
	</g>
	<g>
		<g>
			<path fill="#D81259" d="M246.3,405.6c69.5-12.8,101.1-82.4,101.1-155.7v-15.7L203.9,389.7L246.3,405.6z"/>
		</g>
	</g>
	<g>
		<g>
			<g>
				<path fill="#FF4085" d="M223.3,397c69.5-12.8,124.1-74.4,124.1-147.7v-15.7L49.6,331.5L223.3,397z"/>
			</g>
		</g>
		<g>
			<g>
				<polygon fill="#F73777" points="347.4,233.6 128,361.1 49.6,331.5 				"/>
			</g>
		</g>
		<g>
			<polygon fill="#F73777" points="347.4,233.6 125.4,286.7 158.3,302.1 			"/>
		</g>
	</g>
	<g>
		<g>
			<polygon fill="#D81259" points="439,193.9 469.6,229.3 469.6,214.2 			"/>
		</g>
	</g>
	<g>
		<g>
			<polygon fill="#F3C143" points="469.6,173.5 439,193.9 500.8,193.9 			"/>
		</g>
	</g>
	<g>
		<g>
			<polygon fill="#CBA042" points="500.8,193.9 469.6,214.2 439,193.9 			"/>
		</g>
	</g>
	<g>
		<g>
			<path fill="#7F0A34" d="M409,172.7c1.9,0,3.4-1.5,3.4-3.4c0-3.5,2.8-6.3,6.3-6.3c3.5,0,6.3,2.8,6.3,6.3c0,1.9,1.5,3.4,3.4,3.4
				s3.4-1.5,3.4-3.4c0-7.2-5.9-13.1-13.1-13.1c-7.2,0-13.1,5.9-13.1,13.1C405.6,171.2,407.1,172.7,409,172.7z"/>
		</g>
	</g>
</g>
<g>
	<path fill="#F91259" d="M555.6,88.8h-11.7v-6.3c0-2.8,0.3-4.8,1-6.2c0.7-1.3,2.1-3.1,4.3-5.3l7.6-7.6c1.6-1.7,2.4-3.8,2.4-6.3
		c0-2.6-0.8-4.8-2.5-6.5c-1.7-1.7-3.8-2.5-6.3-2.5c-2.7,0-4.9,0.8-6.7,2.4c-1.8,1.6-2.8,3.8-3.1,6.5H528c0.7-6.2,3.1-11,7.2-14.5
		c4.1-3.5,9.3-5.2,15.6-5.2c6,0,11,1.7,14.8,5c3.9,3.4,5.8,8,5.8,14.1c0,2-0.2,3.8-0.7,5.5c-0.5,1.6-1.3,3.3-2.7,4.9
		c-1.3,1.7-2.4,2.8-3.1,3.5c-0.7,0.7-2.1,2-4.3,4c-0.1,0.1-0.4,0.4-0.7,0.7c-1.2,1.2-2.1,2.2-2.6,2.8c-0.5,0.6-0.9,1.4-1.3,2.5
		c-0.4,1.1-0.6,2.4-0.6,3.9V88.8z M541.9,104.3c0-2.1,0.8-4,2.3-5.5c1.6-1.5,3.4-2.3,5.7-2.3c2.1,0,4,0.7,5.6,2.2
		c1.6,1.5,2.4,3.3,2.4,5.3c0,2.1-0.8,4-2.3,5.5c-1.6,1.5-3.4,2.3-5.7,2.3c-2.1,0-4-0.7-5.6-2.2C542.7,108.2,541.9,106.4,541.9,104.3
		z"/>
</g>
<g>
	<g>
		<path fill="#F91259" d="M751.6,227.7c-1.4,0-2.6-1.2-2.6-2.6v-7.8c0-1.4,1.2-2.6,2.6-2.6c1.4,0,2.6,1.2,2.6,2.6v7.8
			C754.2,226.5,753,227.7,751.6,227.7z M751.6,212c-1.4,0-2.6-1.2-2.6-2.6v-7.8c0-1.4,1.2-2.6,2.6-2.6c1.4,0,2.6,1.2,2.6,2.6v7.8
			C754.2,210.8,753,212,751.6,212z M751.6,196.3c-1.4,0-2.6-1.2-2.6-2.6v-7.8c0-1.4,1.2-2.6,2.6-2.6c1.4,0,2.6,1.2,2.6,2.6v7.8
			C754.2,195.1,753,196.3,751.6,196.3z M751.5,180.6c-1.4,0-2.5-1.1-2.6-2.5c-0.1-2.5-0.4-5-0.9-7.5c-0.3-1.4,0.7-2.8,2.1-3.1
			c1.4-0.3,2.8,0.7,3.1,2.1c0.5,2.7,0.8,5.4,1,8.1c0.1,1.4-1,2.7-2.5,2.8C751.6,180.6,751.5,180.6,751.5,180.6z M629.9,176.3
			c-0.1,0-0.2,0-0.3,0c-1.4-0.2-2.4-1.5-2.3-2.9c0.3-2.7,0.9-5.4,1.6-8c0.4-1.4,1.8-2.2,3.2-1.9c1.4,0.4,2.2,1.8,1.9,3.2
			c-0.6,2.4-1.1,4.9-1.4,7.4C632.3,175.3,631.2,176.3,629.9,176.3z M748.6,165.2c-1.1,0-2.1-0.7-2.5-1.8c-0.8-2.4-1.7-4.7-2.8-7
			c-0.6-1.3-0.1-2.9,1.2-3.5c1.3-0.6,2.9-0.1,3.5,1.2c1.2,2.5,2.2,5,3,7.6c0.4,1.4-0.3,2.9-1.7,3.3
			C749.1,165.2,748.8,165.2,748.6,165.2z M633.9,161.2c-0.3,0-0.7-0.1-1-0.2c-1.3-0.5-2-2.1-1.4-3.4c1-2.5,2.2-5,3.6-7.4
			c0.7-1.3,2.3-1.7,3.6-1c1.3,0.7,1.7,2.3,1,3.6c-1.2,2.2-2.3,4.4-3.3,6.8C635.9,160.6,634.9,161.2,633.9,161.2z M741.9,151.1
			c-0.9,0-1.7-0.4-2.2-1.2c-1.4-2.1-2.9-4.1-4.5-6c-0.9-1.1-0.8-2.8,0.3-3.7c1.1-0.9,2.8-0.8,3.7,0.3c1.8,2.1,3.4,4.3,4.9,6.6
			c0.8,1.2,0.4,2.8-0.8,3.6C742.8,151,742.3,151.1,741.9,151.1z M641.6,147.5c-0.5,0-1.1-0.2-1.6-0.5c-1.2-0.9-1.4-2.5-0.5-3.7
			c1.6-2.2,3.4-4.3,5.3-6.2c1-1,2.7-1.1,3.7-0.1c1,1,1.1,2.7,0.1,3.7c-1.7,1.8-3.4,3.7-4.9,5.7C643.2,147.2,642.4,147.5,641.6,147.5
			z M731.8,139.1c-0.6,0-1.3-0.2-1.8-0.7c-1.8-1.7-3.8-3.3-5.8-4.7c-1.2-0.8-1.5-2.5-0.6-3.6c0.8-1.2,2.5-1.5,3.6-0.6
			c2.2,1.6,4.4,3.3,6.4,5.1c1.1,1,1.1,2.6,0.2,3.7C733.2,138.9,732.5,139.1,731.8,139.1z M652.5,136.3c-0.8,0-1.5-0.3-2.1-1
			c-0.9-1.1-0.7-2.8,0.4-3.7c2.1-1.7,4.4-3.3,6.7-4.7c1.2-0.7,2.8-0.4,3.6,0.9c0.7,1.2,0.4,2.8-0.9,3.6c-2.1,1.3-4.2,2.7-6.2,4.3
			C653.6,136.1,653.1,136.3,652.5,136.3z M719,130.1c-0.4,0-0.8-0.1-1.2-0.3c-2.2-1.2-4.5-2.2-6.9-3.1c-1.4-0.5-2-2-1.5-3.4
			c0.5-1.4,2-2,3.4-1.5c2.5,0.9,5.1,2.1,7.5,3.3c1.3,0.7,1.8,2.3,1.1,3.5C720.8,129.6,719.9,130.1,719,130.1z M665.9,128.2
			c-1,0-2-0.6-2.4-1.6c-0.6-1.3,0-2.9,1.3-3.4c2.5-1.1,5.1-2,7.7-2.8c1.4-0.4,2.8,0.4,3.2,1.8c0.4,1.4-0.4,2.8-1.8,3.2
			c-2.4,0.7-4.8,1.6-7.1,2.6C666.6,128.2,666.2,128.2,665.9,128.2z M704.3,124.7c-0.2,0-0.4,0-0.6-0.1c-2.4-0.6-4.9-1-7.4-1.2
			c-1.4-0.1-2.5-1.4-2.3-2.9c0.1-1.4,1.4-2.5,2.9-2.3c2.7,0.3,5.4,0.7,8.1,1.3c1.4,0.3,2.3,1.7,2,3.1
			C706.6,123.8,705.5,124.7,704.3,124.7z M680.9,123.8c-1.3,0-2.4-0.9-2.6-2.2c-0.2-1.4,0.8-2.8,2.2-3c2.7-0.4,5.4-0.7,8.1-0.8
			c1.4,0,2.6,1.1,2.7,2.5c0,1.4-1.1,2.6-2.5,2.7c-2.5,0.1-5,0.3-7.5,0.7C681.2,123.8,681,123.8,680.9,123.8z"/>
	</g>
	<g>
		<path fill="#F91259" d="M1099,420.8c-0.1,0-0.2,0-0.3,0c-0.4,0-0.7-0.2-1-0.3l-4.1-2.2c-0.4,1.1-1.5,1.8-2.7,1.7l-7.8-0.8
			c-1.4-0.2-2.5-1.4-2.3-2.9c0.2-1.4,1.4-2.5,2.9-2.3l5.8,0.6c0-0.4,0.1-0.9,0.3-1.3c0.7-1.3,2.3-1.8,3.5-1.1l6.9,3.7
			c1.1,0.6,1.6,1.9,1.3,3.1C1101.1,420,1100.1,420.8,1099,420.8z M1075.5,418.3c-0.1,0-0.2,0-0.3,0l-7.8-0.8
			c-1.4-0.2-2.5-1.4-2.3-2.9c0.2-1.4,1.4-2.5,2.9-2.3l7.8,0.8c1.4,0.2,2.5,1.4,2.3,2.9C1078,417.3,1076.8,418.3,1075.5,418.3z
			 M789.3,417.4c-1.4,0-2.6-1.1-2.6-2.6c0-1.4,1.1-2.6,2.6-2.7c2.5,0,5.1-0.1,7.7-0.3c1.4-0.1,2.7,1,2.8,2.5c0.1,1.4-1,2.7-2.5,2.8
			C794.6,417.2,791.9,417.3,789.3,417.4C789.3,417.4,789.3,417.4,789.3,417.4z M781.5,417.3C781.4,417.3,781.4,417.3,781.5,417.3
			c-2.7-0.1-5.4-0.3-8.1-0.5c-1.4-0.1-2.5-1.4-2.4-2.8c0.1-1.4,1.4-2.5,2.8-2.4c2.6,0.2,5.1,0.4,7.7,0.5c1.4,0.1,2.6,1.3,2.5,2.7
			C784,416.2,782.9,417.3,781.5,417.3z M1059.9,416.6c-0.1,0-0.2,0-0.3,0l-7.8-0.8c-1.4-0.2-2.5-1.4-2.3-2.9
			c0.2-1.4,1.4-2.5,2.9-2.3l7.8,0.8c1.4,0.2,2.5,1.4,2.3,2.9C1062.4,415.6,1061.2,416.6,1059.9,416.6z M805,416.4
			c-1.3,0-2.5-1-2.6-2.4c-0.1-1.4,0.9-2.7,2.3-2.9c2.5-0.3,5.1-0.6,7.7-0.9c1.4-0.2,2.8,0.8,3,2.2c0.2,1.4-0.8,2.8-2.2,3
			c-2.6,0.4-5.3,0.7-7.9,1C805.2,416.4,805.1,416.4,805,416.4z M765.8,415.9c-0.1,0-0.2,0-0.4,0c-2.6-0.4-5.3-0.8-7.9-1.3
			c-1.4-0.3-2.4-1.6-2.1-3.1c0.3-1.4,1.6-2.4,3.1-2.1c2.5,0.5,5.1,0.9,7.6,1.2c1.4,0.2,2.4,1.5,2.2,2.9
			C768.2,415,767.1,415.9,765.8,415.9z M1044.3,415c-0.1,0-0.2,0-0.3,0l-7.8-0.8c-1.4-0.2-2.5-1.4-2.3-2.9c0.2-1.4,1.4-2.5,2.9-2.3
			l7.8,0.8c1.4,0.2,2.5,1.4,2.3,2.9C1046.8,414,1045.6,415,1044.3,415z M820.5,414.3c-1.2,0-2.4-0.9-2.6-2.2c-0.2-1.4,0.7-2.8,2.1-3
			c2.5-0.4,5.1-0.9,7.6-1.5c1.4-0.3,2.8,0.6,3.1,2c0.3,1.4-0.6,2.8-2,3.1c-2.6,0.5-5.2,1-7.8,1.5
			C820.8,414.2,820.7,414.3,820.5,414.3z M1028.7,413.4c-0.1,0-0.2,0-0.3,0l-7.8-0.8c-1.4-0.2-2.5-1.4-2.3-2.9
			c0.2-1.4,1.4-2.5,2.9-2.3l7.8,0.8c1.4,0.2,2.5,1.4,2.3,2.9C1031.1,412.4,1030,413.4,1028.7,413.4z M1085.1,413.3
			c-0.4,0-0.8-0.1-1.2-0.3l-6.9-3.7c-1.3-0.7-1.8-2.3-1.1-3.5c0.7-1.3,2.3-1.8,3.5-1.1l6.9,3.7c1.3,0.7,1.8,2.3,1.1,3.5
			C1087,412.8,1086.1,413.3,1085.1,413.3z M750.4,413.1c-0.2,0-0.4,0-0.6-0.1c-2.6-0.6-5.2-1.3-7.7-2c-1.4-0.4-2.2-1.9-1.8-3.2
			s1.9-2.2,3.2-1.8c2.5,0.7,5,1.4,7.5,2c1.4,0.3,2.3,1.7,1.9,3.2C752.7,412.3,751.6,413.1,750.4,413.1z M1013.1,411.7
			c-0.1,0-0.2,0-0.3,0l-7.8-0.8c-1.4-0.2-2.5-1.4-2.3-2.9c0.2-1.4,1.4-2.5,2.9-2.3l7.8,0.8c1.4,0.2,2.5,1.4,2.3,2.9
			C1015.5,410.7,1014.4,411.7,1013.1,411.7z M835.9,411c-1.2,0-2.2-0.8-2.5-2c-0.3-1.4,0.5-2.8,1.9-3.2c2.5-0.6,5-1.3,7.5-2
			c1.4-0.4,2.8,0.4,3.2,1.8c0.4,1.4-0.4,2.8-1.8,3.2c-2.5,0.7-5.1,1.4-7.7,2C836.3,411,836.1,411,835.9,411z M997.5,410.1
			c-0.1,0-0.2,0-0.3,0l-7.8-0.8c-1.4-0.2-2.5-1.4-2.3-2.9c0.2-1.4,1.4-2.5,2.9-2.3l7.8,0.8c1.4,0.2,2.5,1.4,2.3,2.9
			C999.9,409.1,998.8,410.1,997.5,410.1z M735.3,408.7c-0.3,0-0.6,0-0.9-0.1c-2.5-0.9-5-1.8-7.5-2.8c-1.3-0.5-2-2.1-1.4-3.4
			c0.5-1.3,2.1-2,3.4-1.4c2.4,1,4.8,1.9,7.2,2.7c1.4,0.5,2.1,2,1.6,3.3C737.4,408,736.4,408.7,735.3,408.7z M981.8,408.4
			c-0.1,0-0.2,0-0.3,0l-7.8-0.8c-1.4-0.2-2.5-1.4-2.3-2.9c0.2-1.4,1.4-2.5,2.9-2.3l7.8,0.8c1.4,0.2,2.5,1.4,2.3,2.9
			C984.3,407.4,983.2,408.4,981.8,408.4z M966.2,406.8c-0.1,0-0.2,0-0.3,0l-7.8-0.8c-1.4-0.2-2.5-1.4-2.3-2.9
			c0.2-1.4,1.4-2.5,2.9-2.3l7.8,0.8c1.4,0.2,2.5,1.4,2.3,2.9C968.7,405.8,967.6,406.8,966.2,406.8z M851,406.7
			c-1.1,0-2.1-0.7-2.5-1.8c-0.5-1.4,0.3-2.9,1.7-3.3c2.5-0.8,4.9-1.7,7.3-2.6c1.3-0.5,2.9,0.2,3.4,1.5c0.5,1.3-0.2,2.9-1.5,3.4
			c-2.4,0.9-4.9,1.8-7.5,2.7C851.5,406.6,851.3,406.7,851,406.7z M1071.3,405.9c-0.4,0-0.8-0.1-1.2-0.3l-6.9-3.7
			c-1.3-0.7-1.8-2.3-1.1-3.5c0.7-1.3,2.3-1.8,3.5-1.1l6.9,3.7c1.3,0.7,1.8,2.3,1.1,3.5C1073.1,405.4,1072.2,405.9,1071.3,405.9z
			 M950.6,405.1c-0.1,0-0.2,0-0.3,0l-7.8-0.8c-1.4-0.2-2.5-1.4-2.3-2.9c0.2-1.4,1.4-2.5,2.9-2.3l7.8,0.8c1.4,0.2,2.5,1.4,2.3,2.9
			C953.1,404.1,951.9,405.1,950.6,405.1z M935,403.5c-0.1,0-0.2,0-0.3,0l-7.8-0.8c-1.4-0.2-2.5-1.4-2.3-2.9c0.2-1.4,1.4-2.5,2.9-2.3
			l7.8,0.8c1.4,0.2,2.5,1.4,2.3,2.9C937.5,402.5,936.3,403.5,935,403.5z M720.8,402.8c-0.4,0-0.7-0.1-1.1-0.2
			c-2.4-1.1-4.8-2.3-7.2-3.5c-1.3-0.7-1.8-2.3-1.1-3.5c0.7-1.3,2.3-1.8,3.5-1.1c2.3,1.2,4.6,2.4,6.9,3.4c1.3,0.6,1.9,2.2,1.3,3.5
			C722.7,402.2,721.8,402.8,720.8,402.8z M919.4,401.8c-0.1,0-0.2,0-0.3,0l-7.8-0.8c-1.4-0.2-2.5-1.4-2.3-2.9
			c0.2-1.4,1.4-2.5,2.9-2.3l7.8,0.8c1.4,0.2,2.5,1.4,2.3,2.9C921.8,400.8,920.7,401.8,919.4,401.8z M865.6,401c-1,0-2-0.6-2.4-1.5
			c-0.6-1.3,0-2.9,1.3-3.5c2.4-1.1,4.7-2.2,6.9-3.4c1.3-0.7,2.9-0.2,3.5,1.1c0.7,1.3,0.2,2.9-1.1,3.5c-2.3,1.2-4.7,2.4-7.2,3.5
			C866.4,401,866,401,865.6,401z M903.8,400.2c-0.1,0-0.2,0-0.3,0l-7.8-0.8c-1.4-0.2-2.5-1.4-2.3-2.9c0.2-1.4,1.4-2.5,2.9-2.3
			l7.8,0.8c1.4,0.2,2.5,1.4,2.3,2.9C906.2,399.2,905.1,400.2,903.8,400.2z M888.2,398.5c-0.1,0-0.2,0-0.3,0l-7.8-0.8
			c-1.4-0.2-2.5-1.4-2.3-2.9c0.2-1.4,1.4-2.5,2.9-2.3l7.8,0.8c1.4,0.2,2.5,1.4,2.3,2.9C890.6,397.5,889.5,398.5,888.2,398.5z
			 M1057.5,398.5c-0.4,0-0.8-0.1-1.2-0.3l-6.9-3.7c-1.3-0.7-1.8-2.3-1.1-3.5c0.7-1.3,2.3-1.8,3.5-1.1l6.9,3.7
			c1.3,0.7,1.8,2.3,1.1,3.5C1059.3,398,1058.4,398.5,1057.5,398.5z M706.9,395.4c-0.5,0-0.9-0.1-1.3-0.4c-2.3-1.4-4.6-2.8-6.8-4.2
			c-1.2-0.8-1.5-2.4-0.7-3.6c0.8-1.2,2.4-1.5,3.6-0.7c2.1,1.4,4.3,2.8,6.5,4.1c1.2,0.7,1.7,2.3,0.9,3.6
			C708.6,395,707.8,395.4,706.9,395.4z M1043.6,391c-0.4,0-0.8-0.1-1.2-0.3l-6.9-3.7c-1.3-0.7-1.8-2.3-1.1-3.5
			c0.7-1.3,2.3-1.8,3.5-1.1l6.9,3.7c1.3,0.7,1.8,2.3,1.1,3.5C1045.5,390.5,1044.6,391,1043.6,391z M693.8,386.8
			c-0.5,0-1.1-0.2-1.5-0.5c-2.1-1.6-4.3-3.2-6.3-4.9c-1.1-0.9-1.3-2.6-0.4-3.7c0.9-1.1,2.6-1.3,3.7-0.4c2,1.6,4,3.2,6.1,4.7
			c1.2,0.9,1.4,2.5,0.6,3.7C695.4,386.4,694.6,386.8,693.8,386.8z M1029.8,383.6c-0.4,0-0.8-0.1-1.2-0.3l-6.9-3.7
			c-1.3-0.7-1.8-2.3-1.1-3.5c0.7-1.3,2.3-1.8,3.5-1.1l6.9,3.7c1.3,0.7,1.8,2.3,1.1,3.5C1031.6,383.1,1030.7,383.6,1029.8,383.6z
			 M681.6,376.8c-0.6,0-1.3-0.2-1.8-0.7c-2-1.8-3.9-3.6-5.8-5.5c-1-1-1-2.7,0-3.7c1-1,2.7-1,3.7,0c1.8,1.8,3.7,3.6,5.6,5.3
			c1.1,1,1.2,2.6,0.2,3.7C683,376.6,682.3,376.8,681.6,376.8z M1016,376.2c-0.4,0-0.8-0.1-1.2-0.3l-6.9-3.7
			c-1.3-0.7-1.8-2.3-1.1-3.5c0.7-1.3,2.3-1.8,3.5-1.1l6.9,3.7c1.3,0.7,1.8,2.3,1.1,3.5C1017.8,375.7,1016.9,376.2,1016,376.2z
			 M1002.2,368.8c-0.4,0-0.8-0.1-1.2-0.3l-6.9-3.7c-1.3-0.7-1.8-2.3-1.1-3.5c0.7-1.3,2.3-1.8,3.5-1.1l6.9,3.7
			c1.3,0.7,1.8,2.3,1.1,3.5C1004,368.3,1003.1,368.8,1002.2,368.8z M670.5,365.8c-0.7,0-1.4-0.3-1.9-0.9c-1.8-1.9-3.5-4-5.2-6
			c-0.9-1.1-0.8-2.8,0.4-3.7c1.1-0.9,2.8-0.8,3.7,0.4c1.6,2,3.3,3.9,5.1,5.8c1,1.1,0.9,2.7-0.2,3.7
			C671.7,365.6,671.1,365.8,670.5,365.8z M988.3,361.3c-0.4,0-0.8-0.1-1.2-0.3l-6.9-3.7c-1.3-0.7-1.8-2.3-1.1-3.5
			c0.7-1.3,2.3-1.8,3.5-1.1l6.9,3.7c1.3,0.7,1.8,2.3,1.1,3.5C990.2,360.8,989.3,361.3,988.3,361.3z M660.5,353.7
			c-0.8,0-1.6-0.4-2.1-1.1c-1.6-2.1-3.1-4.3-4.6-6.5c-0.8-1.2-0.5-2.8,0.7-3.6c1.2-0.8,2.8-0.5,3.6,0.7c1.4,2.1,2.9,4.3,4.4,6.3
			c0.9,1.2,0.6,2.8-0.5,3.7C661.6,353.5,661.1,353.7,660.5,353.7z M651.8,340.7c-0.9,0-1.8-0.5-2.2-1.3c-1.4-2.3-2.7-4.6-3.9-6.9
			c-0.7-1.3-0.2-2.9,1.1-3.5c1.3-0.7,2.9-0.2,3.5,1.1c1.2,2.3,2.5,4.5,3.8,6.7c0.7,1.2,0.3,2.8-0.9,3.6
			C652.7,340.5,652.2,340.7,651.8,340.7z M644.4,326.8c-1,0-1.9-0.6-2.4-1.5c-1.1-2.4-2.2-4.8-3.2-7.3c-0.6-1.3,0.1-2.9,1.4-3.4
			c1.3-0.5,2.9,0.1,3.4,1.4c1,2.4,2,4.7,3.1,7c0.6,1.3,0.1,2.9-1.2,3.5C645.2,326.8,644.8,326.8,644.4,326.8z M638.4,312.4
			c-1.1,0-2.1-0.7-2.5-1.7c-0.9-2.5-1.7-5-2.5-7.6c-0.4-1.4,0.4-2.8,1.8-3.3c1.4-0.4,2.8,0.4,3.3,1.8c0.7,2.5,1.5,4.9,2.4,7.3
			c0.5,1.4-0.2,2.9-1.6,3.3C639,312.3,638.7,312.4,638.4,312.4z M633.9,297.3c-1.2,0-2.2-0.8-2.5-2c-0.6-2.6-1.2-5.2-1.7-7.8
			c-0.3-1.4,0.7-2.8,2.1-3.1c1.4-0.3,2.8,0.7,3.1,2.1c0.5,2.5,1,5.1,1.7,7.5c0.3,1.4-0.5,2.8-1.9,3.2
			C634.3,297.3,634.1,297.3,633.9,297.3z M631,281.9c-1.3,0-2.4-0.9-2.6-2.2c-0.4-2.6-0.7-5.3-0.9-7.9c-0.1-1.4,0.9-2.7,2.4-2.8
			c1.4-0.1,2.7,0.9,2.8,2.4c0.2,2.6,0.5,5.1,0.9,7.7c0.2,1.4-0.8,2.8-2.2,3C631.2,281.9,631.1,281.9,631,281.9z M629.5,266.3
			c-1.4,0-2.6-1.1-2.6-2.5c-0.1-2.3-0.1-4.6-0.1-6.9v-1.1c0-1.4,1.2-2.6,2.6-2.6c1.4,0,2.6,1.2,2.6,2.6v1.1c0,2.2,0,4.4,0.1,6.6
			c0.1,1.4-1.1,2.7-2.5,2.7C629.6,266.3,629.6,266.3,629.5,266.3z M629.4,250.6c-1.4,0-2.6-1.2-2.6-2.6v-7.8c0-1.4,1.2-2.6,2.6-2.6
			c1.4,0,2.6,1.2,2.6,2.6v7.8C632,249.4,630.8,250.6,629.4,250.6z M629.4,234.9c-1.4,0-2.6-1.2-2.6-2.6v-7.8c0-1.4,1.2-2.6,2.6-2.6
			c1.4,0,2.6,1.2,2.6,2.6v7.8C632,233.7,630.8,234.9,629.4,234.9z M629.4,219.2c-1.4,0-2.6-1.2-2.6-2.6v-4.5c0-1.4,1.2-2.6,2.6-2.6
			c1.4,0,2.6,1.2,2.6,2.6v4.5C632,218,630.8,219.2,629.4,219.2z"/>
	</g>
	<g>
		<path fill="#F91259" d="M873.7,397.1c-0.2,0-0.3,0-0.5-0.1c-2.6-0.5-5.2-1.1-7.8-1.8c-1.4-0.4-2.2-1.8-1.9-3.2
			c0.4-1.4,1.8-2.2,3.2-1.9c2.5,0.6,5,1.2,7.5,1.7c1.4,0.3,2.3,1.7,2.1,3.1C876,396.2,875,397.1,873.7,397.1z M881.2,395.4
			c-1.1,0-2.1-0.6-2.4-1.7c-0.5-1.4,0.2-2.9,1.5-3.4l7.3-2.8c1.4-0.5,2.9,0.2,3.4,1.5c0.5,1.4-0.2,2.9-1.5,3.4l-7.3,2.8
			C881.8,395.3,881.5,395.4,881.2,395.4z M858.5,393.2c-0.3,0-0.5,0-0.8-0.1c-2.5-0.8-5.1-1.7-7.6-2.6c-1.4-0.5-2-2-1.5-3.4
			c0.5-1.4,2-2,3.4-1.5c2.4,0.9,4.9,1.7,7.3,2.5c1.4,0.4,2.2,1.9,1.7,3.3C860.6,392.5,859.6,393.2,858.5,393.2z M895.9,389.8
			c-1.1,0-2.1-0.6-2.4-1.7c-0.5-1.4,0.2-2.9,1.5-3.4l7.3-2.8c1.4-0.5,2.9,0.2,3.4,1.5c0.5,1.4-0.2,2.9-1.5,3.4l-7.3,2.8
			C896.5,389.8,896.2,389.8,895.9,389.8z M843.8,387.8c-0.3,0-0.7-0.1-1-0.2c-2.4-1-4.9-2.2-7.3-3.3c-1.3-0.6-1.8-2.2-1.2-3.5
			c0.6-1.3,2.2-1.8,3.5-1.2c2.3,1.1,4.7,2.2,7,3.2c1.3,0.6,1.9,2.1,1.4,3.4C845.7,387.2,844.8,387.8,843.8,387.8z M910.6,384.3
			c-1.1,0-2.1-0.6-2.4-1.7c-0.5-1.4,0.2-2.9,1.5-3.4l7.3-2.8c1.4-0.5,2.9,0.2,3.4,1.5c0.5,1.4-0.2,2.9-1.5,3.4l-7.3,2.8
			C911.2,384.2,910.9,384.3,910.6,384.3z M829.7,380.8c-0.4,0-0.9-0.1-1.3-0.3c-2.3-1.3-4.6-2.7-6.9-4.1c-1.2-0.8-1.6-2.4-0.8-3.6
			c0.8-1.2,2.4-1.6,3.6-0.8c2.2,1.4,4.4,2.7,6.6,3.9c1.3,0.7,1.7,2.3,1,3.6C831.5,380.4,830.6,380.8,829.7,380.8z M925.2,378.8
			c-1.1,0-2.1-0.6-2.4-1.7c-0.5-1.4,0.2-2.9,1.5-3.4l7.3-2.8c1.4-0.5,2.9,0.2,3.4,1.5c0.5,1.4-0.2,2.9-1.5,3.4l-7.3,2.8
			C925.9,378.7,925.6,378.8,925.2,378.8z M939.9,373.2c-1.1,0-2.1-0.6-2.4-1.7c-0.5-1.4,0.2-2.9,1.5-3.4l7.3-2.8
			c1.4-0.5,2.9,0.2,3.4,1.5c0.5,1.4-0.2,2.9-1.5,3.4l-7.3,2.8C940.6,373.2,940.2,373.2,939.9,373.2z M816.4,372.5
			c-0.5,0-1-0.2-1.5-0.5c-2.2-1.5-4.3-3.1-6.4-4.7c-1.1-0.9-1.3-2.5-0.5-3.7c0.9-1.1,2.5-1.3,3.7-0.5c2,1.6,4.1,3.1,6.2,4.6
			c1.2,0.8,1.5,2.5,0.6,3.6C818,372.1,817.2,372.5,816.4,372.5z M954.6,367.7c-1.1,0-2.1-0.6-2.4-1.7c-0.5-1.4,0.2-2.9,1.5-3.4
			l7.3-2.8c1.4-0.5,2.9,0.2,3.4,1.5c0.5,1.4-0.2,2.9-1.5,3.4l-7.3,2.8C955.2,367.6,954.9,367.7,954.6,367.7z M804,362.8
			c-0.6,0-1.2-0.2-1.7-0.6c-2-1.7-4-3.5-5.9-5.4c-1-1-1.1-2.7-0.1-3.7c1-1,2.7-1.1,3.7-0.1c1.9,1.8,3.8,3.5,5.7,5.2
			c1.1,0.9,1.2,2.6,0.3,3.7C805.5,362.5,804.7,362.8,804,362.8z M969.3,362.2c-1.1,0-2.1-0.6-2.4-1.7c-0.5-1.4,0.2-2.9,1.5-3.4
			l7.3-2.8c1.4-0.5,2.9,0.2,3.4,1.5c0.5,1.4-0.2,2.9-1.5,3.4l-7.3,2.8C969.9,362.1,969.6,362.2,969.3,362.2z M984,356.6
			c-1.1,0-2.1-0.6-2.4-1.7c-0.5-1.4,0.2-2.9,1.5-3.4l7.3-2.8c1.4-0.5,2.9,0.2,3.4,1.5c0.5,1.4-0.2,2.9-1.5,3.4l-7.3,2.8
			C984.6,356.6,984.3,356.6,984,356.6z M792.7,352c-0.7,0-1.4-0.3-1.9-0.8c-1.8-1.9-3.6-3.9-5.3-5.9c-0.9-1.1-0.8-2.8,0.3-3.7
			c1.1-0.9,2.8-0.8,3.7,0.3c1.7,1.9,3.4,3.9,5.1,5.7c1,1.1,0.9,2.7-0.1,3.7C794,351.8,793.3,352,792.7,352z M998.7,351.1
			c-1.1,0-2.1-0.6-2.4-1.7c-0.5-1.4,0.2-2.9,1.5-3.4l7.3-2.8c1.4-0.5,2.9,0.2,3.4,1.5c0.5,1.4-0.2,2.9-1.5,3.4l-7.3,2.8
			C999.3,351,999,351.1,998.7,351.1z M1013.4,345.6c-1.1,0-2.1-0.6-2.4-1.7c-0.5-1.4,0.2-2.9,1.5-3.4l7.3-2.8
			c1.4-0.5,2.9,0.2,3.4,1.5c0.5,1.4-0.2,2.9-1.5,3.4l-7.3,2.8C1014,345.5,1013.7,345.6,1013.4,345.6z M782.5,340
			c-0.8,0-1.6-0.4-2.1-1c-1.6-2.1-3.2-4.3-4.7-6.5c-0.8-1.2-0.5-2.8,0.7-3.6c1.2-0.8,2.8-0.5,3.6,0.7c1.5,2.1,3,4.2,4.5,6.2
			c0.9,1.1,0.7,2.8-0.5,3.7C783.6,339.9,783,340,782.5,340z M1028.1,340c-1.1,0-2.1-0.6-2.4-1.7c-0.5-1.4,0.2-2.9,1.5-3.4l7.3-2.8
			c1.4-0.5,2.9,0.2,3.4,1.5c0.5,1.4-0.2,2.9-1.5,3.4l-7.3,2.8C1028.7,340,1028.4,340,1028.1,340z M1042.8,334.5
			c-1.1,0-2.1-0.6-2.4-1.7c-0.5-1.4,0.2-2.9,1.5-3.4l4.5-1.7c0.6-1,1.9-1.4,3-1.1l0.8,0.3c1.1,0.3,1.8,1.3,1.8,2.4
			c0,1.1-0.7,2.1-1.7,2.5l-6.6,2.5C1043.4,334.4,1043.1,334.5,1042.8,334.5z M1041.1,329.3c-0.3,0-0.5,0-0.8-0.1l-7.5-2.5
			c-1.4-0.5-2.1-1.9-1.7-3.3c0.5-1.4,1.9-2.1,3.3-1.7l7.5,2.5c1.4,0.5,2.1,1.9,1.7,3.3C1043.3,328.6,1042.2,329.3,1041.1,329.3z
			 M773.6,327.1c-0.9,0-1.7-0.4-2.2-1.2c-1.4-2.3-2.7-4.6-4-6.9c-0.7-1.3-0.2-2.9,1-3.6c1.3-0.7,2.9-0.2,3.6,1
			c1.2,2.2,2.5,4.5,3.9,6.7c0.8,1.2,0.4,2.8-0.9,3.6C774.5,327,774.1,327.1,773.6,327.1z M1026.2,324.4c-0.3,0-0.5,0-0.8-0.1
			l-7.5-2.5c-1.4-0.5-2.1-1.9-1.7-3.3c0.5-1.4,1.9-2.1,3.3-1.7l7.5,2.5c1.4,0.5,2.1,1.9,1.7,3.3
			C1028.3,323.7,1027.3,324.4,1026.2,324.4z M1011.3,319.5c-0.3,0-0.5,0-0.8-0.1l-7.5-2.5c-1.4-0.5-2.1-1.9-1.7-3.3
			c0.5-1.4,1.9-2.1,3.3-1.7l7.5,2.5c1.4,0.5,2.1,1.9,1.7,3.3C1013.4,318.8,1012.4,319.5,1011.3,319.5z M996.4,314.6
			c-0.3,0-0.5,0-0.8-0.1l-7.5-2.5c-1.4-0.5-2.1-1.9-1.7-3.3c0.5-1.4,1.9-2.1,3.3-1.7l7.5,2.5c1.4,0.5,2.1,1.9,1.7,3.3
			C998.5,313.9,997.5,314.6,996.4,314.6z M766.1,313.4c-1,0-1.9-0.5-2.4-1.5c-1.1-2.4-2.2-4.8-3.3-7.3c-0.6-1.3,0.1-2.9,1.4-3.4
			c1.3-0.6,2.9,0.1,3.4,1.4c1,2.4,2,4.7,3.1,7c0.6,1.3,0.1,2.9-1.2,3.5C766.8,313.3,766.5,313.4,766.1,313.4z M981.5,309.7
			c-0.3,0-0.5,0-0.8-0.1l-7.5-2.5c-1.4-0.5-2.1-1.9-1.7-3.3c0.5-1.4,1.9-2.1,3.3-1.7l7.5,2.5c1.4,0.5,2.1,1.9,1.7,3.3
			C983.6,309,982.6,309.7,981.5,309.7z M966.6,304.8c-0.3,0-0.5,0-0.8-0.1l-7.5-2.5c-1.4-0.5-2.1-1.9-1.7-3.3
			c0.5-1.4,1.9-2.1,3.3-1.7l7.5,2.5c1.4,0.5,2.1,1.9,1.7,3.3C968.7,304.1,967.7,304.8,966.6,304.8z M951.7,299.9
			c-0.3,0-0.5,0-0.8-0.1l-3-1c-1-0.3-1.7-1.3-1.8-2.3c-0.1-1.1,0.5-2.1,1.5-2.5l4.2-2c1.3-0.6,2.9-0.1,3.5,1.3
			c0.6,1.2,0.1,2.7-1,3.4c0.1,0.5,0.1,1,0,1.6C953.8,299.2,952.8,299.9,951.7,299.9z M760.1,298.9c-1.1,0-2.1-0.7-2.5-1.7
			c-0.9-2.5-1.7-5-2.5-7.6c-0.4-1.4,0.4-2.8,1.8-3.3c1.4-0.4,2.8,0.4,3.3,1.8c0.7,2.5,1.5,4.9,2.4,7.3c0.5,1.4-0.2,2.9-1.6,3.3
			C760.6,298.9,760.3,298.9,760.1,298.9z M959.9,293.6c-1,0-1.9-0.6-2.4-1.5c-0.6-1.3-0.1-2.9,1.3-3.5l6.9-3.2l-1-0.2
			c-1.4-0.3-2.3-1.7-1.9-3.2c0.3-1.4,1.7-2.3,3.2-1.9l7.6,1.8c1.4,0.3,2.3,1.7,1.9,3.2c-0.3,1.4-1.7,2.3-3.2,1.9l-3.1-0.8
			c0.1,0.1,0.1,0.2,0.2,0.3c0.6,1.3,0.1,2.9-1.3,3.5l-7.1,3.3C960.7,293.5,960.3,293.6,959.9,293.6z M755.6,283.9
			c-1.2,0-2.3-0.8-2.5-2c-0.6-2.6-1.2-5.2-1.7-7.8c-0.3-1.4,0.7-2.8,2.1-3c1.4-0.3,2.8,0.7,3,2.1c0.5,2.5,1,5,1.6,7.5
			c0.3,1.4-0.5,2.8-1.9,3.2C756,283.9,755.8,283.9,755.6,283.9z M957.7,283.4c-0.2,0-0.4,0-0.6-0.1l-7.6-1.8
			c-1.4-0.3-2.3-1.7-1.9-3.2c0.3-1.4,1.7-2.3,3.2-1.9l7.6,1.8c1.4,0.3,2.3,1.7,1.9,3.2C960,282.6,958.9,283.4,957.7,283.4z
			 M942.4,279.7c-0.2,0-0.4,0-0.6-0.1l-7.6-1.8c-1.4-0.3-2.3-1.7-1.9-3.2c0.3-1.4,1.7-2.3,3.2-1.9l7.6,1.8c1.4,0.3,2.3,1.7,1.9,3.2
			C944.7,278.9,943.6,279.7,942.4,279.7z M927.2,276.1c-0.2,0-0.4,0-0.6-0.1l-7.6-1.8c-1.4-0.3-2.3-1.7-1.9-3.2
			c0.3-1.4,1.7-2.3,3.2-1.9l7.6,1.8c1.4,0.3,2.3,1.7,1.9,3.2C929.4,275.3,928.3,276.1,927.2,276.1z M911.9,272.4
			c-0.2,0-0.4,0-0.6-0.1l-7.6-1.8c-1.4-0.3-2.3-1.7-1.9-3.2c0.3-1.4,1.7-2.3,3.2-1.9l7.6,1.8c1.4,0.3,2.3,1.7,1.9,3.2
			C914.2,271.6,913.1,272.4,911.9,272.4z M896.6,268.8c-0.2,0-0.4,0-0.6-0.1l-7.6-1.8c-1.4-0.3-2.3-1.7-1.9-3.2
			c0.3-1.4,1.7-2.3,3.2-1.9l7.6,1.8c1.4,0.3,2.3,1.7,1.9,3.2C898.9,268,897.8,268.8,896.6,268.8z M752.8,268.4c-1.3,0-2.4-1-2.6-2.3
			c-0.3-2.6-0.6-5.3-0.8-7.9c-0.1-1.4,1-2.7,2.4-2.8c1.5-0.1,2.7,1,2.8,2.4c0.2,2.6,0.5,5.1,0.8,7.7c0.2,1.4-0.8,2.7-2.3,2.9
			C753,268.4,752.9,268.4,752.8,268.4z M881.4,265.1c-0.2,0-0.4,0-0.6-0.1l-7.6-1.8c-1.4-0.3-2.3-1.7-1.9-3.2
			c0.3-1.4,1.7-2.3,3.2-1.9l7.6,1.8c1.4,0.3,2.3,1.7,1.9,3.2C883.6,264.3,882.5,265.1,881.4,265.1z M866.1,261.5
			c-0.2,0-0.4,0-0.6-0.1l-7.6-1.8c-1.4-0.3-2.3-1.7-1.9-3.2c0.3-1.4,1.7-2.3,3.2-1.9l7.6,1.8c1.4,0.3,2.3,1.7,1.9,3.2
			C868.3,260.7,867.3,261.5,866.1,261.5z M850.8,257.8c-0.2,0-0.4,0-0.6-0.1l-7.6-1.8c-1.4-0.3-2.3-1.7-1.9-3.2
			c0.3-1.4,1.7-2.3,3.2-1.9l7.6,1.8c1.4,0.3,2.3,1.7,1.9,3.2C853.1,257,852,257.8,850.8,257.8z M835.5,254.2c-0.2,0-0.4,0-0.6-0.1
			l-7.6-1.8c-1.4-0.3-2.3-1.7-1.9-3.2c0.3-1.4,1.7-2.3,3.2-1.9l7.6,1.8c1.4,0.3,2.3,1.7,1.9,3.2
			C837.8,253.4,836.7,254.2,835.5,254.2z M751.6,252.8c-1.4,0-2.6-1.1-2.6-2.6c0-1,0-2.1,0-3.1v-4.8c0-1.4,1.2-2.6,2.6-2.6
			c1.4,0,2.6,1.2,2.6,2.6v4.8c0,1,0,2,0,3C754.2,251.6,753.1,252.8,751.6,252.8C751.6,252.8,751.6,252.8,751.6,252.8z M820.3,250.5
			c-0.2,0-0.4,0-0.6-0.1l-7.6-1.8c-1.4-0.3-2.3-1.7-1.9-3.2c0.3-1.4,1.7-2.3,3.2-1.9l7.6,1.8c1.4,0.3,2.3,1.7,1.9,3.2
			C822.5,249.7,821.5,250.5,820.3,250.5z M805,246.9c-0.2,0-0.4,0-0.6-0.1l-7.6-1.8c-1.4-0.3-2.3-1.7-1.9-3.2
			c0.3-1.4,1.7-2.3,3.2-1.9l7.6,1.8c1.4,0.3,2.3,1.7,1.9,3.2C807.3,246.1,806.2,246.9,805,246.9z M789.7,243.2c-0.2,0-0.4,0-0.6-0.1
			l-7.6-1.8c-1.4-0.3-2.3-1.7-1.9-3.2c0.3-1.4,1.7-2.3,3.2-1.9l7.6,1.8c1.4,0.3,2.3,1.7,1.9,3.2C792,242.4,790.9,243.2,789.7,243.2z
			 M774.5,239.6c-0.2,0-0.4,0-0.6-0.1l-7.6-1.8c-1.4-0.3-2.3-1.7-1.9-3.2c0.3-1.4,1.7-2.3,3.2-1.9l7.6,1.8c1.4,0.3,2.3,1.7,1.9,3.2
			C776.7,238.8,775.7,239.6,774.5,239.6z M751.6,237.1c-1.4,0-2.6-1.2-2.6-2.6v-3c0-0.8,0.4-1.6,1-2.1c0.6-0.5,1.5-0.7,2.2-0.5
			l7.6,1.8c1.4,0.3,2.3,1.7,1.9,3.2c-0.3,1.4-1.7,2.3-3.2,1.9l-4.4-1.1C754,236.1,752.9,237.1,751.6,237.1z"/>
	</g>
	<g>
		<g>
			<path fill="#F91259" d="M598.1,194.4c-0.9,0-1.7-0.4-2.2-1.2c-0.8-1.2-0.4-2.8,0.8-3.6l6.6-4.3c1.2-0.8,2.8-0.4,3.6,0.8
				c0.8,1.2,0.4,2.8-0.8,3.6l-6.6,4.3C599.1,194.2,598.6,194.4,598.1,194.4z M611.3,185.8c-0.9,0-1.7-0.4-2.2-1.2
				c-0.8-1.2-0.4-2.8,0.8-3.6l6.6-4.3c1.2-0.8,2.8-0.4,3.6,0.8c0.8,1.2,0.4,2.8-0.8,3.6l-6.6,4.3
				C612.3,185.6,611.8,185.8,611.3,185.8z M624.4,177.2c-0.9,0-1.7-0.4-2.2-1.2c-0.8-1.2-0.4-2.8,0.8-3.6l5-3.2
				c1.2-0.8,2.8-0.4,3.6,0.8c0.8,1.2,0.4,2.8-0.8,3.6l-5,3.2C625.4,177.1,624.9,177.2,624.4,177.2z"/>
		</g>
		<g>
			
				<path fill="none" stroke="#F91259" stroke-width="8" stroke-linecap="round" stroke-linejoin="round" stroke-miterlimit="10" stroke-dasharray="12" d="
				M598.1,191.7"/>
		</g>
		<g>
			
				<path fill="none" stroke="#F91259" stroke-width="8" stroke-linecap="round" stroke-linejoin="round" stroke-miterlimit="10" stroke-dasharray="12" d="
				M614.5,191.7"/>
		</g>
		<g>
			
				<path fill="none" stroke="#F91259" stroke-width="4" stroke-linecap="round" stroke-linejoin="round" stroke-miterlimit="10" stroke-dasharray="12" d="
				M598.1,191.7"/>
		</g>
		<g>
			
				<path fill="none" stroke="#F91259" stroke-width="4" stroke-linecap="round" stroke-linejoin="round" stroke-miterlimit="10" stroke-dasharray="12" d="
				M659.9,191.7"/>
		</g>
		<g>
			<path fill="#F91259" d="M659.9,194.4c-0.5,0-1-0.1-1.4-0.4l-4.4-2.9c-1.2-0.8-1.5-2.4-0.7-3.6c0.8-1.2,2.4-1.5,3.6-0.7l4.4,2.9
				c1.2,0.8,1.5,2.4,0.7,3.6C661.6,193.9,660.8,194.4,659.9,194.4z M649,187.1c-0.5,0-1-0.1-1.4-0.4l-6.5-4.4
				c-1.2-0.8-1.5-2.4-0.7-3.6c0.8-1.2,2.4-1.5,3.6-0.7l6.5,4.4c1.2,0.8,1.5,2.4,0.7,3.6C650.6,186.6,649.8,187.1,649,187.1z
				 M635.9,178.3c-0.5,0-1-0.1-1.4-0.4l-6.5-4.4c-1.2-0.8-1.5-2.4-0.7-3.6c0.8-1.2,2.4-1.5,3.6-0.7l6.5,4.4c1.2,0.8,1.5,2.4,0.7,3.6
				C637.6,177.9,636.8,178.3,635.9,178.3z"/>
		</g>
	</g>
	<g>
		<g>
			<path fill="#F91259" d="M629.4,214.7c-0.5,0-1-0.1-1.4-0.4l-5-3.2c-1.2-0.8-1.6-2.4-0.8-3.6c0.8-1.2,2.4-1.6,3.6-0.8l3.5,2.3
				l0.2-0.1c1.2-0.8,2.8-0.5,3.6,0.7c0.8,1.2,0.5,2.8-0.7,3.6l-1.6,1.1C630.4,214.6,629.9,214.7,629.4,214.7z M637.5,209.3
				c-0.8,0-1.7-0.4-2.2-1.2c-0.8-1.2-0.5-2.8,0.7-3.6l6.5-4.4c1.2-0.8,2.8-0.5,3.6,0.7c0.8,1.2,0.5,2.8-0.7,3.6l-6.5,4.4
				C638.5,209.1,638,209.3,637.5,209.3z M617.8,207.2c-0.5,0-1-0.1-1.4-0.4l-6.6-4.3c-1.2-0.8-1.6-2.4-0.8-3.6
				c0.8-1.2,2.4-1.6,3.6-0.8l6.6,4.3c1.2,0.8,1.6,2.4,0.8,3.6C619.5,206.8,618.7,207.2,617.8,207.2z M650.6,200.6
				c-0.8,0-1.7-0.4-2.2-1.2c-0.8-1.2-0.5-2.8,0.7-3.6l6.5-4.4c1.2-0.8,2.8-0.5,3.6,0.7c0.8,1.2,0.5,2.8-0.7,3.6l-6.5,4.4
				C651.6,200.4,651.1,200.6,650.6,200.6z M604.7,198.6c-0.5,0-1-0.1-1.4-0.4l-6.6-4.3c-1.2-0.8-1.6-2.4-0.8-3.6
				c0.8-1.2,2.4-1.6,3.6-0.8l6.6,4.3c1.2,0.8,1.6,2.4,0.8,3.6C606.4,198.2,605.5,198.6,604.7,198.6z"/>
		</g>
	</g>
	<g>
		<g>
			<path fill="#F91259" d="M690,170.6c-1.9,0-3.4-1.5-3.4-3.4c0-3.5-2.8-6.3-6.3-6.3c-3.5,0-6.3,2.8-6.3,6.3c0,1.9-1.5,3.4-3.4,3.4
				c-1.9,0-3.4-1.5-3.4-3.4c0-7.2,5.9-13.1,13.1-13.1c7.2,0,13.1,5.9,13.1,13.1C693.4,169.1,691.9,170.6,690,170.6z"/>
		</g>
	</g>
	<g>
		<path fill="#F91259" d="M774.2,485.2c-1.4,0-2.6-1.2-2.6-2.6v-6.1c0-1.4,1.2-2.6,2.6-2.6c1.4,0,2.6,1.2,2.6,2.6v6.1
			C776.8,484.1,775.6,485.2,774.2,485.2z M774.2,471.3c-1.4,0-2.6-1.2-2.6-2.6v-7.8c0-1.4,1.2-2.6,2.6-2.6c1.4,0,2.6,1.2,2.6,2.6
			v7.8C776.8,470.2,775.6,471.3,774.2,471.3z M774.2,455.6c-1.4,0-2.6-1.2-2.6-2.6v-7.8c0-1.4,1.2-2.6,2.6-2.6
			c1.4,0,2.6,1.2,2.6,2.6v7.8C776.8,454.5,775.6,455.6,774.2,455.6z M774.2,439.9c-1.4,0-2.6-1.2-2.6-2.6v-7.8
			c0-1.4,1.2-2.6,2.6-2.6c1.4,0,2.6,1.2,2.6,2.6v7.8C776.8,438.8,775.6,439.9,774.2,439.9z M774.2,424.2c-1.4,0-2.6-1.2-2.6-2.6
			v-7.8c0-1.4,1.2-2.6,2.6-2.6c1.4,0,2.6,1.2,2.6,2.6v7.8C776.8,423.1,775.6,424.2,774.2,424.2z"/>
	</g>
</g>
<g>
	<g>
		<polygon fill="#DBD9D9" points="893.9,585.5 862.1,616.5 862.1,584.7 		"/>
	</g>
	<g>
		<g>
			<polygon fill="#DBD9D9" points="851.6,553.6 815.7,585.5 815.7,553.6 			"/>
		</g>
	</g>
	<g>
		<g>
			<polygon fill="#E8E7E7" points="815.7,585.5 893.9,585.5 893.9,553.6 893.9,519.5 851.6,519.5 851.6,553.6 			"/>
		</g>
	</g>
	<g>
		<g>
			<polygon fill="#DBD9D9" points="246.2,553.6 282.1,585.5 282.1,553.6 			"/>
		</g>
	</g>
	<g>
		<g>
			<rect x="246.2" y="484.8" fill="#FFFFFF" width="605.4" height="68.8"/>
		</g>
	</g>
	<g>
		<g>
			<path fill="#F91259" d="M827.2,514.6c-0.4-2.8-2.7-5.1-5.6-5.6c-2.3-0.4-4.5,0.5-5.9,2c-1.5-1.5-3.6-2.4-5.9-2
				c-2.8,0.4-5.1,2.7-5.6,5.6c-0.4,2.3,0.5,4.5,2,6l0,0l9.5,9.5l9.5-9.5l0,0C826.7,519.1,827.5,516.9,827.2,514.6z"/>
		</g>
	</g>
	<g>
		<g>
			<path fill="#F91259" d="M295.3,514.6c-0.4-2.8-2.7-5.1-5.6-5.6c-2.3-0.4-4.5,0.5-5.9,2c-1.5-1.5-3.6-2.4-5.9-2
				c-2.8,0.4-5.1,2.7-5.6,5.6c-0.4,2.3,0.5,4.5,2,6l0,0l9.5,9.5l9.5-9.5l0,0C294.8,519.1,295.6,516.9,295.3,514.6z"/>
		</g>
	</g>
	<g>
		<path fill="#FFFFFF" d="M772.3,528.8"/>
	</g>
	<g>
		<polygon fill="#DBD9D9" points="203.9,585.5 235.7,616.5 235.7,584.7 		"/>
	</g>
	<g>
		<g>
			<polygon fill="#E8E7E7" points="282.1,585.5 203.9,585.5 203.9,553.6 203.9,519.5 246.2,519.5 246.2,553.6 			"/>
		</g>
	</g>
</g>
<g>
	<path fill="#F91259" d="M351.4,519.6h6.1v-4.7h4.1v4.7h3.1v3.9h-3.1v6.5h-4.1v-6.5h-11v-3.8l9.4-15.4h4.7L351.4,519.6z"/>
	<path fill="#F91259" d="M370.7,526.7c-1.7-2.4-2.6-5.6-2.6-9.7c0-4,0.9-7.3,2.6-9.7c1.7-2.4,4.4-3.6,7.9-3.6s6.1,1.2,7.9,3.6
		c1.7,2.4,2.6,5.6,2.6,9.7c0,4-0.9,7.3-2.6,9.7c-1.7,2.4-4.4,3.6-7.9,3.6S372.4,529.1,370.7,526.7z M373.8,510.1
		c-1,1.8-1.5,4.1-1.5,6.9c0,2.9,0.5,5.2,1.5,6.9c1,1.8,2.6,2.6,4.8,2.6s3.7-0.9,4.7-2.6c1-1.8,1.5-4.1,1.5-7c0-2.9-0.5-5.2-1.5-7
		c-1-1.8-2.6-2.6-4.7-2.6S374.8,508.3,373.8,510.1z"/>
	<path fill="#F91259" d="M396.6,519.6h6.1v-4.7h4.1v4.7h3.1v3.9h-3.1v6.5h-4.1v-6.5h-11v-3.8l9.4-15.4h4.7L396.6,519.6z"/>
	<path fill="#F91259" d="M444.1,513.2c0,3.3-0.9,5.6-2.7,7.1c-1.8,1.4-4.6,2.2-8.4,2.2h-4.6v7.5h-4.3v-25.7h8.8
		c3.9,0,6.7,0.7,8.5,2.2C443.2,508.1,444.1,510.3,444.1,513.2z M439.6,513.2c0-1.8-0.6-3.1-1.7-3.9c-1.1-0.7-2.8-1.1-5.2-1.1h-4.4
		v10.3h5c2.4,0,4-0.5,4.9-1.4C439.2,516.3,439.6,514.9,439.6,513.2z"/>
	<path fill="#F91259" d="M462,504.3l11.3,25.7h-4.8l-2.6-5.8h-12.3l-2.5,5.8h-4.6l11.3-25.7H462z M464.2,520.2l-4.4-9.9l-4.4,9.9
		H464.2z"/>
	<path fill="#F91259" d="M495.3,517.5h4.3v8.8c-2.4,2.7-5.9,4-10.4,4c-3.8,0-7-1.3-9.5-3.7c-2.6-2.5-3.8-5.7-3.8-9.6
		c0-3.8,1.3-6.9,3.9-9.5c2.6-2.5,5.8-3.8,9.6-3.8c3.6,0,6.6,1.1,9.1,3.2l-2.3,3.3c-1-0.9-2-1.5-3-1.8c-1-0.3-2.2-0.5-3.5-0.5
		c-2.6,0-4.8,0.8-6.5,2.5c-1.8,1.7-2.6,3.9-2.6,6.6c0,2.7,0.9,4.9,2.6,6.6c1.7,1.7,3.8,2.5,6.3,2.5c2.4,0,4.4-0.5,6-1.6V517.5z"/>
	<path fill="#F91259" d="M523.9,504.3v4.1h-13.7v6.8h12.3v3.9h-12.3v6.9h14.2v4.1h-18.5v-25.7H523.9z"/>
	<path fill="#F91259" d="M557.8,523.5v-19.2h4.3V530h-4.7l-14.6-18.7V530h-4.3v-25.7h4.3L557.8,523.5z"/>
	<path fill="#F91259" d="M591.1,526.5c-2.6,2.5-5.8,3.8-9.6,3.8c-3.8,0-7-1.3-9.6-3.8c-2.6-2.5-3.9-5.7-3.9-9.5
		c0-3.8,1.3-6.9,3.9-9.5c2.6-2.5,5.8-3.8,9.6-3.8c3.8,0,7,1.3,9.6,3.8c2.6,2.5,3.9,5.7,3.9,9.5C595,520.8,593.7,523.9,591.1,526.5z
		 M587.9,510.4c-1.8-1.8-3.9-2.7-6.5-2.7c-2.5,0-4.7,0.9-6.5,2.7c-1.8,1.8-2.6,4-2.6,6.6c0,2.6,0.9,4.8,2.6,6.6
		c1.8,1.8,3.9,2.7,6.5,2.7c2.5,0,4.7-0.9,6.5-2.7c1.8-1.8,2.6-4,2.6-6.6C590.6,514.4,589.7,512.2,587.9,510.4z"/>
	<path fill="#F91259" d="M610.9,508.3V530h-4.3v-21.7h-7.8v-4h19.9v4H610.9z"/>
	<path fill="#F91259" d="M649.5,504.3l0,4h-12.8v7.1h12.1v4h-12.1V530h-4.3v-25.7H649.5z"/>
	<path fill="#F91259" d="M676.1,526.5c-2.6,2.5-5.8,3.8-9.6,3.8c-3.8,0-7-1.3-9.6-3.8c-2.6-2.5-3.9-5.7-3.9-9.5
		c0-3.8,1.3-6.9,3.9-9.5c2.6-2.5,5.8-3.8,9.6-3.8c3.8,0,7,1.3,9.6,3.8c2.6,2.5,3.9,5.7,3.9,9.5C680,520.8,678.7,523.9,676.1,526.5z
		 M672.9,510.4c-1.8-1.8-3.9-2.7-6.5-2.7c-2.5,0-4.7,0.9-6.5,2.7c-1.8,1.8-2.6,4-2.6,6.6c0,2.6,0.9,4.8,2.6,6.6
		c1.8,1.8,3.9,2.7,6.5,2.7c2.5,0,4.7-0.9,6.5-2.7c1.8-1.8,2.6-4,2.6-6.6C675.5,514.4,674.6,512.2,672.9,510.4z"/>
	<path fill="#F91259" d="M706.7,504.3v14.6c0,3.7-1,6.5-3.1,8.5c-2,2-4.6,3-7.8,3c-3,0-5.6-1-7.7-3c-2.1-2-3.1-4.8-3.1-8.3v-14.8
		h4.4v14.2c0,2.4,0.6,4.3,1.7,5.7s2.8,2.1,4.8,2.1c2,0,3.6-0.7,4.7-2c1.2-1.4,1.7-3.2,1.7-5.6v-14.4H706.7z"/>
	<path fill="#F91259" d="M733.3,523.5v-19.2h4.3V530H733l-14.6-18.7V530h-4.3v-25.7h4.3L733.3,523.5z"/>
	<path fill="#F91259" d="M768.9,517.2c0,3.9-1.2,7-3.6,9.4c-2.4,2.3-6.1,3.5-11,3.5h-8.5v-25.7h8.8c4.6,0,8.1,1.1,10.6,3.4
		C767.7,509.9,768.9,513.1,768.9,517.2z M764.6,517.2c0-5.9-3.4-8.8-10.1-8.8h-4.3v17.6h4.8c3.1,0,5.5-0.7,7.1-2.2
		C763.7,522.2,764.6,520.1,764.6,517.2z"/>
</g>
</svg>
