<?xml version="1.0" encoding="utf-8"?>
<!-- Generator: Adobe Illustrator 17.1.0, SVG Export Plug-In . SVG Version: 6.00 Build 0)  -->
<!DOCTYPE svg PUBLIC "-//W3C//DTD SVG 1.1//EN" "http://www.w3.org/Graphics/SVG/1.1/DTD/svg11.dtd">
<svg version="1.1" id="Layer_1" xmlns="http://www.w3.org/2000/svg" xmlns:xlink="http://www.w3.org/1999/xlink" x="0px" y="0px"
	 viewBox="0 0 1111.4 626.4" enable-background="new 0 0 1111.4 626.4" xml:space="preserve">
<g>
	<rect x="777" y="423.2" fill="#874789" width="8" height="75.3"/>
</g>
<path fill="#874789" d="M634.3,243.2v-50.6v0c0-34.3,27.8-62.1,62.1-62.1c34.3,0,62.1,27.8,62.1,62.1v0v50.6L634.3,243.2z"/>
<g>
	<path fill="#874789" d="M758.4,240.7v1.1l353,189.7l-228.8-24.1c-22.9,12.6-59.9,20.7-87.9,20.7c-88.6,0-160.3-71.8-160.3-160.3
		v-15.5v-11.4L758.4,240.7z"/>
</g>
<g>
	<path fill="#643666" d="M859.8,417.1c-70.7-13-102.7-83.8-102.7-158.2V243l167.2,149.8L859.8,417.1z"/>
</g>
<g>
	<path fill="#A158A5" d="M884.5,408.6c-70.7-13-126.1-75.6-126.1-150.1v-15.9l302.6,99.5L884.5,408.6z"/>
</g>
<g>
	<polygon fill="#955299" points="757.4,242.1 983,370.8 1060,341.1 	"/>
</g>
<polygon fill="#955299" points="757.4,243.7 983.6,297.2 950.2,312.9 "/>
<g>
	<polygon fill="#643666" points="665.3,203.5 634.3,239.5 634.3,224.2 	"/>
</g>
<g>
	<polygon fill="#F3C143" points="633.7,183.2 664.7,203.9 601.9,203.9 	"/>
</g>
<g>
	<polygon fill="#CBA042" points="601.9,203.9 633.7,224.6 664.7,203.9 	"/>
</g>
<g>
	<path fill="#643666" d="M696.5,181.4c-1.9,0-3.4-1.5-3.4-3.4c0-3.5-2.9-6.4-6.4-6.4c-3.5,0-6.4,2.9-6.4,6.4c0,1.9-1.5,3.4-3.4,3.4
		c-1.9,0-3.4-1.5-3.4-3.4c0-7.3,6-13.3,13.3-13.3c7.3,0,13.3,6,13.3,13.3C700,179.9,698.4,181.4,696.5,181.4z"/>
</g>
<circle fill="#FFFFFF" cx="559.2" cy="76.3" r="76.3"/>
<g>
	<polyline fill="#F91259" points="334,492.5 334,417.2 325.9,417.2 325.9,492.5 	"/>
	<path fill="#F91259" d="M353,238.4v-51.7v0c0-34.3,27.8-62.1,62.1-62.1s62.1,27.8,62.1,62.1v0v51.7L353,238.4z"/>
	<g>
		<path fill="#F91259" d="M353,237.4L0,427l228.8-24.1c22.9,12.6,59.9,20.7,87.9,20.7c88.6,0,160.3-71.8,160.3-160.3v-15.5v-10.3
			L353,237.4z"/>
	</g>
	<g>
		<path fill="#D81259" d="M250.2,412.1c70.7-13,102.7-83.8,102.7-158.2V238L207.2,395.9L250.2,412.1z"/>
	</g>
	<g>
		<g>
			<path fill="#FF4085" d="M226.9,403.3c70.7-13,126.1-75.6,126.1-150.1v-15.9L50.4,336.8L226.9,403.3z"/>
		</g>
		<g>
			<polygon fill="#F73777" points="353,237.4 130,366.8 50.4,336.8 			"/>
		</g>
		<polygon fill="#F73777" points="353,237.4 127.4,291.3 160.8,307 		"/>
	</g>
	<g>
		<polygon fill="#D81259" points="446.1,197 477.1,232.9 477.1,217.7 		"/>
	</g>
	<g>
		<polygon fill="#F3C143" points="477.1,176.3 446.1,197 508.9,197 		"/>
	</g>
	<g>
		<polygon fill="#CBA042" points="508.9,197 477.1,217.7 446.1,197 		"/>
	</g>
	<g>
		<path fill="#7F0A34" d="M415.5,175.5c1.9,0,3.4-1.5,3.4-3.4c0-3.5,2.9-6.4,6.4-6.4c3.5,0,6.4,2.9,6.4,6.4c0,1.9,1.5,3.4,3.4,3.4
			c1.9,0,3.4-1.5,3.4-3.4c0-7.3-6-13.3-13.3-13.3c-7.3,0-13.3,6-13.3,13.3C412.1,173.9,413.6,175.5,415.5,175.5z"/>
	</g>
</g>
<g>
	<polygon fill="#DBD9D9" points="908.2,594.8 875.9,626.4 875.9,594.1 	"/>
	<g>
		<polygon fill="#DBD9D9" points="865.2,562.5 828.7,594.8 828.7,562.5 		"/>
	</g>
	<g>
		<polygon fill="#E8E7E7" points="828.7,594.8 908.2,594.8 908.2,562.5 908.2,527.8 865.2,527.8 865.2,562.5 		"/>
	</g>
	<g>
		<polygon fill="#DBD9D9" points="250.1,562.5 286.6,594.8 286.6,562.5 		"/>
	</g>
	<g>
		<rect x="250.1" y="492.5" fill="#FFFFFF" width="615.1" height="69.9"/>
	</g>
	<g>
		<path fill="#F91259" d="M840.4,522.8c-0.4-2.9-2.8-5.2-5.7-5.7c-2.4-0.4-4.6,0.5-6,2c-1.5-1.5-3.7-2.4-6-2
			c-2.9,0.4-5.2,2.8-5.7,5.7c-0.4,2.4,0.5,4.6,2,6l0,0l9.7,9.7l9.7-9.7l0,0C839.9,527.4,840.8,525.2,840.4,522.8z"/>
	</g>
	<g>
		<path fill="#F91259" d="M300,522.8c-0.4-2.9-2.8-5.2-5.7-5.7c-2.4-0.4-4.6,0.5-6,2c-1.5-1.5-3.7-2.4-6-2c-2.9,0.4-5.2,2.8-5.7,5.7
			c-0.4,2.4,0.5,4.6,2,6l0,0l9.7,9.7l9.7-9.7l0,0C299.5,527.4,300.4,525.2,300,522.8z"/>
	</g>
	<path fill="#FFFFFF" d="M784.7,537.3"/>
	<polygon fill="#DBD9D9" points="207.2,594.8 239.5,626.4 239.5,594.1 	"/>
	<g>
		<polygon fill="#E8E7E7" points="286.6,594.8 207.2,594.8 207.2,562.5 207.2,527.8 250.1,527.8 250.1,562.5 		"/>
	</g>
</g>
<text transform="matrix(1 0 0 1 329.5219 537.5165)" fill="#F91259" font-family="'Montserrat-Regular'" font-size="29.3748">500 INTERNAL SERVER ERROR</text>
<line fill="none" stroke="#F91259" stroke-width="11" stroke-linecap="round" stroke-linejoin="round" stroke-miterlimit="10" x1="580.8" y1="54.7" x2="537.6" y2="97.9"/>
<line fill="none" stroke="#F91259" stroke-width="11" stroke-linecap="round" stroke-linejoin="round" stroke-miterlimit="10" x1="580.8" y1="97.9" x2="537.6" y2="54.7"/>
</svg>
