<?xml version="1.0" encoding="utf-8"?>
<!-- Generator: Adobe Illustrator 17.1.0, SVG Export Plug-In . SVG Version: 6.00 Build 0)  -->
<!DOCTYPE svg PUBLIC "-//W3C//DTD SVG 1.1//EN" "http://www.w3.org/Graphics/SVG/1.1/DTD/svg11.dtd">
<svg version="1.1" id="Layer_1" xmlns="http://www.w3.org/2000/svg" xmlns:xlink="http://www.w3.org/1999/xlink" x="0px" y="0px"
	 viewBox="0 0 170 32" enable-background="new 0 0 170 32" xml:space="preserve">
<g>
	<path fill="#5FACF9" d="M53.5,12.6H17c-3,0-5.8-1.2-7.9-3.3L0,0l46.3,0c1.8,0,3.6,0.7,4.9,2.1l10.2,10.4L53.5,12.6z"/>
	<path fill="#F2206C" d="M53.5,12.6H17c-3,0-5.8-1.2-7.9-3.3L0,0l46.3,0c1.8,0,3.6,0.7,4.9,2.1l10.2,10.4L53.5,12.6z"/>
	<path fill="#F7418B" d="M17,12.6h5.7L10.3,0L0,0l9.1,9.2C11.2,11.4,14,12.6,17,12.6z"/>
	<polygon fill="#F7418B" points="33,12.6 43.3,12.6 31,0 20.7,0 	"/>
	<path fill="#F7418B" d="M53.7,12.6H64L53.7,2.1c-1.3-1.3-3-2.1-4.9-2.1l-7.5,0L53.7,12.6z"/>
	<path fill="#5FACF9" d="M53.5,19.4H17c-3,0-5.8,1.2-7.9,3.3L0,32h46.3c1.8,0,3.6-0.7,4.9-2.1l10.2-10.4L53.5,19.4z"/>
	<path fill="#F2206C" d="M53.5,19.4H17c-3,0-5.8,1.2-7.9,3.3L0,32h46.3c1.8,0,3.6-0.7,4.9-2.1l10.2-10.4L53.5,19.4z"/>
	<path fill="#F7418B" d="M17,19.4h5.7L10.3,32H0l9.1-9.2C11.2,20.6,14,19.4,17,19.4z"/>
	<polygon fill="#F7418B" points="33,19.4 43.3,19.4 31,32 20.7,32 	"/>
	<path fill="#F7418B" d="M53.7,19.4H64L53.7,29.9c-1.3,1.3-3,2.1-4.9,2.1h-7.5L53.7,19.4z"/>
	<path fill="#FCFCFC" d="M145.6,12.6v6.9H24c-1.8,0-3.3-1.5-3.3-3.4V16c0-1.9,1.5-3.4,3.3-3.4H145.6z"/>
	<path fill="#F7418B" d="M140.2,4.9l29.2,10.3c0.8,0.3,0.8,1.4,0,1.7l-29.2,10.3c-0.6,0.2-1.2-0.2-1.2-0.8V5.7
		C139,5.1,139.6,4.7,140.2,4.9z"/>
	<path fill="#F7418B" d="M140.2,4.9l29.2,10.3c0.8,0.3,0.8,1.4,0,1.7l-29.2,10.3c-0.6,0.2-1.2-0.2-1.2-0.8V5.7
		C139,5.1,139.6,4.7,140.2,4.9z"/>
</g>
</svg>
