<?xml version="1.0" encoding="utf-8"?>
<!-- Generator: Adobe Illustrator 17.1.0, SVG Export Plug-In . SVG Version: 6.00 Build 0)  -->
<!DOCTYPE svg PUBLIC "-//W3C//DTD SVG 1.1//EN" "http://www.w3.org/Graphics/SVG/1.1/DTD/svg11.dtd">
<svg version="1.1" id="Layer_1" xmlns="http://www.w3.org/2000/svg" xmlns:xlink="http://www.w3.org/1999/xlink" x="0px" y="0px"
	 viewBox="0 0 596 444" enable-background="new 0 0 596 444" xml:space="preserve">
<ellipse fill="#FFFFFF" cx="548.7" cy="47.4" rx="47.3" ry="47.4"/>
<g>
	<path fill="#F2206C" d="M562.7,42.7c0-4.5-3.7-8.2-8.2-8.2c-2.3,0-4.4,1-5.9,2.5c-1.5-1.6-3.6-2.5-5.9-2.5c-4.5,0-8.2,3.7-8.2,8.2
		c0,2.3,1,4.4,2.5,5.9l0,0l11.5,11.5l11.5-11.5l0,0C561.7,47.1,562.7,45,562.7,42.7z"/>
</g>
<ellipse fill="#FFFFFF" cx="485.6" cy="94.7" rx="11.6" ry="11.6"/>
<polyline fill="#D11964" points="318.7,444 318.7,372.1 311,372.1 311,444 "/>
<g>
	<path fill="#F2206C" d="M0,381.5l336.8-181.1V151v0c0-32.7,26.5-59.3,59.2-59.3s59.2,26.5,59.2,59.3v0v59.3v14.8
		c0,84.5-68.5,153.1-153,153.1c-26.8,0-62-7.7-83.9-19.8L0,381.5z"/>
</g>
<g>
	<polygon fill="#F3C244" points="455.3,141.1 425.7,160.9 485.6,160.9 	"/>
</g>
<g>
	<polygon fill="#D11964" points="425.7,160.9 455.3,195.2 455.3,180.6 	"/>
</g>
<g>
	<path fill="#B21957" d="M396.5,140.4c1.8,0,3.3-1.5,3.3-3.3c0-3.4,2.7-6.1,6.1-6.1c3.4,0,6.1,2.7,6.1,6.1c0,1.8,1.5,3.3,3.3,3.3
		s3.3-1.5,3.3-3.3c0-7-5.7-12.7-12.7-12.7c-7,0-12.7,5.7-12.7,12.7C393.2,138.9,394.7,140.4,396.5,140.4z"/>
</g>
<g>
	<polygon fill="#CCA142" points="485.6,160.9 455.3,180.6 425.7,160.9 	"/>
</g>
<g>
	<path fill="#D11964" d="M238.8,367.2c67.4-12.4,98-80,98-151V201L70,303.6L238.8,367.2z"/>
</g>
<g>
	<path fill="#F7418B" d="M216.5,358.8c67.4-12.4,120.3-72.2,120.3-143.3v-15.2l-288.7,95L216.5,358.8z"/>
</g>
<g>
	<polygon fill="#F969AB" points="336.8,200.4 124.1,324 48.1,295.4 	"/>
</g>
<polygon fill="#F969AB" points="336.8,200.4 121.6,251.9 153.4,266.8 "/>
</svg>
