<?xml version="1.0" encoding="utf-8"?>
<!-- Generator: Adobe Illustrator 17.1.0, SVG Export Plug-In . SVG Version: 6.00 Build 0)  -->
<!DOCTYPE svg PUBLIC "-//W3C//DTD SVG 1.1//EN" "http://www.w3.org/Graphics/SVG/1.1/DTD/svg11.dtd">
<svg version="1.1" id="Layer_1" xmlns="http://www.w3.org/2000/svg" xmlns:xlink="http://www.w3.org/1999/xlink" x="0px" y="0px"
	 viewBox="0 0 24 24" enable-background="new 0 0 24 24" xml:space="preserve">
<g>
	<path fill="#FFFFFF" d="M23.5,9.8h-3.6V6.1c0-0.3-0.2-0.5-0.5-0.5h-1c-0.3,0-0.5,0.2-0.5,0.5v3.6h-3.6c-0.3,0-0.5,0.2-0.5,0.5v1
		c0,0.3,0.2,0.5,0.5,0.5h3.6v3.6c0,0.3,0.2,0.5,0.5,0.5h1c0.3,0,0.5-0.2,0.5-0.5v-3.6h3.6c0.3,0,0.5-0.2,0.5-0.5v-1
		C24,10,23.8,9.8,23.5,9.8z"/>
	<path fill="#FFFFFF" d="M11.3,12.9c-0.8-0.5-1.5-1.3-1.5-1.6c0-0.4,0-0.7,1-1.4c1.3-1,2-2.3,2-3.7c0-1.3-0.4-2.4-1-3.2h0.5
		c0.1,0,0.2,0,0.3-0.1l1.4-1c0.2-0.1,0.3-0.4,0.2-0.6C14.2,1.1,14,1,13.8,1H7.4C6.7,1,6,1.1,5.3,1.4C3,2.2,1.4,4.1,1.4,6.2
		c0,2.9,2.2,5.1,5.2,5.1c-0.1,0.2-0.1,0.5-0.1,0.7c0,0.4,0.1,0.9,0.3,1.3c0,0-0.1,0-0.1,0c-2.8,0-5.4,1.4-6.4,3.5
		C0.1,17.2,0,17.8,0,18.3c0,0.5,0.1,1,0.4,1.5c0.6,1.1,1.9,1.9,3.7,2.4C5,22.4,6,22.6,7,22.6c0.9,0,1.8-0.1,2.6-0.4
		c2.5-0.7,4.2-2.6,4.2-4.7C13.8,15.4,13.1,14.2,11.3,12.9z M3.3,17.6c0-1.5,1.9-2.8,4.1-2.8l0.1,0c0.5,0,0.9,0.1,1.4,0.2
		c0.1,0.1,0.3,0.2,0.4,0.3c1,0.7,1.7,1.1,1.9,1.9c0,0.2,0.1,0.4,0.1,0.5c0,1.9-1.4,2.8-4.1,2.8C4.9,20.5,3.3,19.3,3.3,17.6z
		 M5.3,3.5c0.3-0.4,0.8-0.6,1.3-0.6l0.1,0c1.4,0,2.8,1.6,3,3.5c0.1,1.1-0.1,2-0.6,2.7C8.6,9.4,8.2,9.6,7.7,9.6c0,0,0,0,0,0h0
		c-1.4,0-2.8-1.7-3-3.6C4.5,5,4.7,4.1,5.3,3.5z"/>
</g>
</svg>
