<?xml version="1.0" encoding="utf-8"?>
<!-- Generator: Adobe Illustrator 17.1.0, SVG Export Plug-In . SVG Version: 6.00 Build 0)  -->
<!DOCTYPE svg PUBLIC "-//W3C//DTD SVG 1.1//EN" "http://www.w3.org/Graphics/SVG/1.1/DTD/svg11.dtd">
<svg version="1.1" id="Layer_1" xmlns="http://www.w3.org/2000/svg" xmlns:xlink="http://www.w3.org/1999/xlink" x="0px" y="0px"
	 viewBox="0 0 20 18" enable-background="new 0 0 20 18" xml:space="preserve">
<path fill="#931658" d="M19.6,3.4c-0.5-1.2-1.5-2.3-2.9-2.9c-1.2-0.6-2.5-0.6-3.7-0.3c-1.2,0.4-2.3,1.3-3,2.4C9.3,1.5,8.2,0.6,7,0.2
	S4.5-0.1,3.2,0.5C1.9,1.2,0.9,2.2,0.4,3.4c-0.5,1.2-0.5,2.7,0.1,4.1C1.8,10.7,10,17.9,10,18c0-0.1,8.2-7.3,9.5-10.4
	C20.1,6.1,20.1,4.7,19.6,3.4z"/>
</svg>
