<?xml version="1.0" encoding="utf-8"?>
<!-- Generator: Adobe Illustrator 17.1.0, SVG Export Plug-In . SVG Version: 6.00 Build 0)  -->
<!DOCTYPE svg PUBLIC "-//W3C//DTD SVG 1.1//EN" "http://www.w3.org/Graphics/SVG/1.1/DTD/svg11.dtd">
<svg version="1.1" id="Layer_1" xmlns="http://www.w3.org/2000/svg" xmlns:xlink="http://www.w3.org/1999/xlink" x="0px" y="0px"
	 viewBox="0 0 20 18" enable-background="new 0 0 20 18" xml:space="preserve">
<g>
	<path fill="#FFFFFF" d="M10,16.6c-5-4.7-7.9-7.9-8.6-9.4C0.9,6,0.9,4.9,1.3,3.8c0.4-1,1.3-1.9,2.4-2.4C4.3,1.1,4.9,1,5.5,1
		c0.4,0,0.8,0.1,1.2,0.2c0.9,0.3,1.8,1,2.5,2L10,4.4l0.8-1.2c0.7-1,1.6-1.8,2.5-2C13.7,1.1,14.1,1,14.5,1c0.6,0,1.2,0.1,1.8,0.4
		c1.1,0.5,2,1.4,2.4,2.4c0.4,1.1,0.4,2.2-0.1,3.4C17.9,8.7,15,11.9,10,16.6C10,16.6,10,16.6,10,16.6C10,16.6,10,16.6,10,16.6z"/>
	<path fill="#931658" d="M14.5,2c0.5,0,1,0.1,1.4,0.3c0.9,0.4,1.6,1.1,1.9,1.9c0.3,0.8,0.3,1.7-0.1,2.6c-0.4,0.9-2.1,3.2-7.7,8.5
		C4.4,10,2.7,7.7,2.3,6.8C1.9,5.9,1.9,5,2.2,4.2c0.3-0.8,1-1.5,1.9-1.9C4.5,2.1,5,2,5.5,2c0.3,0,0.6,0,0.9,0.1
		c0.7,0.2,1.4,0.8,1.9,1.6L10,6.2l1.7-2.5c0.5-0.8,1.3-1.4,1.9-1.6C13.9,2,14.2,2,14.5,2 M14.5,0c-0.5,0-1,0.1-1.5,0.2
		c-1.2,0.4-2.3,1.3-3,2.4C9.3,1.5,8.2,0.6,7,0.2C6.5,0.1,6,0,5.5,0C4.7,0,4,0.2,3.2,0.5C1.9,1.2,0.9,2.2,0.4,3.4
		c-0.5,1.2-0.5,2.7,0.1,4.1C1.8,10.7,10,17.9,10,18c0-0.1,8.2-7.3,9.5-10.4c0.6-1.4,0.6-2.9,0.1-4.1c-0.5-1.2-1.5-2.3-2.9-2.9
		C16,0.2,15.3,0,14.5,0L14.5,0z"/>
</g>
</svg>
