<?xml version="1.0" encoding="utf-8"?>
<!-- Generator: Adobe Illustrator 17.1.0, SVG Export Plug-In . SVG Version: 6.00 Build 0)  -->
<!DOCTYPE svg PUBLIC "-//W3C//DTD SVG 1.1//EN" "http://www.w3.org/Graphics/SVG/1.1/DTD/svg11.dtd">
<svg version="1.1" id="Layer_1" xmlns="http://www.w3.org/2000/svg" xmlns:xlink="http://www.w3.org/1999/xlink" x="0px" y="0px"
	 viewBox="0 0 862 522.7" enable-background="new 0 0 862 522.7" xml:space="preserve">
<g>
	<path fill="#F2206C" d="M471.9,23.7c0-13.1-10.6-23.7-23.7-23.7c-6.7,0-12.8,2.8-17.2,7.3C426.7,2.8,420.6,0,413.9,0
		c-13.1,0-23.7,10.6-23.7,23.7c0,6.8,2.8,12.9,7.4,17.2l0,0L431,74.5L464.6,41l0,0C469.1,36.6,471.9,30.5,471.9,23.7z"/>
</g>
<g>
	<rect x="251.2" y="324.4" fill="#D11964" width="7" height="65.5"/>
</g>
<g>
	<path fill="#F2206C" d="M0,332.9l274.7-165v-45v0c0-29.8,24.2-54,54-54c29.8,0,54,24.2,54,54v0v54v13.5
		c0,77-62.5,139.5-139.5,139.5c-24.4,0-56.5-7-76.5-18L0,332.9z"/>
</g>
<g>
	<path fill="#D11964" d="M274.7,167.9c0,0,1.3,112-62.7,148c0,0-19.9,11.1-45.4-4.2c-25.5-15.3,47.5-71.3,47.5-71.3L274.7,167.9z"/>
</g>
<g>
	<polygon fill="#F3C244" points="382.7,113.9 355.7,131.9 418.7,131.9 	"/>
</g>
<g>
	<path fill="#F7418B" d="M166.6,311.7c61.5-11.3,108-65.2,108-130v-13.8l-217,96L166.6,311.7z"/>
</g>
<g>
	<polygon fill="#D11964" points="355.7,131.9 382.7,168.6 382.7,149.9 	"/>
</g>
<g>
	<polygon fill="#D11964" points="91,278.3 148.3,314.3 166.6,311.7 	"/>
</g>
<g>
	<polygon fill="#E8E8E8" points="156,522.2 0,522.2 30.2,480.2 0,435.2 108.6,435.2 108.6,480.2 	"/>
</g>
<g>
	<polygon fill="#DBD9DA" points="719.7,480.7 672.3,522.7 672.3,480.7 	"/>
</g>
<g>
	<polygon fill="#E8E8E8" points="672.3,522.7 828.3,522.7 798.2,480.7 828.3,435.7 719.7,435.7 719.7,480.7 	"/>
</g>
<g>
	<polygon fill="#DBD9DA" points="107.8,480.7 155.2,522.7 155.2,480.7 	"/>
</g>
<g>
	<path fill="#474748" d="M346.3,113.2c-1.7,0-3-1.3-3-3c0-3.1-2.5-5.6-5.6-5.6s-5.6,2.5-5.6,5.6c0,1.7-1.3,3-3,3s-3-1.3-3-3
		c0-6.4,5.2-11.6,11.6-11.6c6.4,0,11.6,5.2,11.6,11.6C349.3,111.9,347.9,113.2,346.3,113.2z"/>
</g>
<g>
	<polygon fill="#F969AB" points="274.7,167.9 104.5,284.6 37.5,257 	"/>
</g>
<g>
	<polygon fill="#CCA142" points="418.7,131.9 382.7,149.9 355.7,131.9 	"/>
</g>
<g>
	<g>
		<rect x="603.7" y="324.4" fill="#4B9CE0" width="7" height="65.5"/>
	</g>
	<g>
		<path fill="#5FACF9" d="M861.8,332.9l-274.7-165v-45v0c0-29.8-24.2-54-54-54c-29.8,0-54,24.2-54,54v0v54v13.5
			c0,77,62.5,139.5,139.5,139.5c24.4,0,56.5-7,76.5-18L861.8,332.9z"/>
	</g>
	<g>
		<path fill="#4B9CE0" d="M587.2,167.9c0,0-1.3,112,62.7,148c0,0,19.9,11.1,45.4-4.2c25.5-15.3-47.5-71.3-47.5-71.3L587.2,167.9z"/>
	</g>
	<g>
		<polygon fill="#F3C244" points="479.2,113.9 506.2,131.9 443.2,131.9 		"/>
	</g>
	<g>
		<path fill="#97D0FF" d="M695.2,311.7c-61.5-11.3-108-65.2-108-130v-13.8l217,96L695.2,311.7z"/>
	</g>
	<g>
		<polygon fill="#4B9CE0" points="506.2,131.9 479.2,169.2 479.2,149.9 		"/>
	</g>
	<g>
		<polygon fill="#4B9CE0" points="770.8,278.3 713.5,314.3 695.2,311.7 		"/>
	</g>
	<g>
		<path fill="#474748" d="M532.7,113.2c-1.7,0-3-1.3-3-3c0-3.1-2.5-5.6-5.6-5.6c-3.1,0-5.6,2.5-5.6,5.6c0,1.7-1.3,3-3,3s-3-1.3-3-3
			c0-6.4,5.2-11.6,11.6-11.6c6.4,0,11.6,5.2,11.6,11.6C535.7,111.9,534.4,113.2,532.7,113.2z"/>
	</g>
	<g>
		<polygon fill="#AEDEFF" points="587.2,167.9 757.3,284.6 824.3,257 		"/>
	</g>
	<g>
		<polygon fill="#CCA142" points="443.2,131.9 479.2,149.9 506.2,131.9 		"/>
	</g>
</g>
<g>
	<rect x="107.8" y="389.9" fill="#FFFFFF" width="611.9" height="90.7"/>
</g>
<g>
	<path fill="#5FACF9" d="M687.6,430.6c0-4.9-4-8.9-8.9-8.9c-2.5,0-4.8,1-6.4,2.7c-1.6-1.7-3.9-2.7-6.4-2.7c-4.9,0-8.9,4-8.9,8.9
		c0,2.5,1.1,4.8,2.8,6.4l0,0l12.5,12.5l12.5-12.5l0,0C686.6,435.4,687.6,433.1,687.6,430.6z"/>
</g>
<g>
	<path fill="#F2206C" d="M172.6,430.6c0-4.9-4-8.9-8.9-8.9c-2.5,0-4.8,1-6.4,2.7c-1.6-1.7-3.9-2.7-6.4-2.7c-4.9,0-8.9,4-8.9,8.9
		c0,2.5,1.1,4.8,2.8,6.4l0,0l12.5,12.5l12.5-12.5l0,0C171.6,435.4,172.6,433.1,172.6,430.6z"/>
</g>
</svg>
