<?xml version="1.0" encoding="utf-8"?>
<!-- Generator: Adobe Illustrator 17.1.0, SVG Export Plug-In . SVG Version: 6.00 Build 0)  -->
<!DOCTYPE svg PUBLIC "-//W3C//DTD SVG 1.1//EN" "http://www.w3.org/Graphics/SVG/1.1/DTD/svg11.dtd">
<svg version="1.1" id="Layer_1" xmlns="http://www.w3.org/2000/svg" xmlns:xlink="http://www.w3.org/1999/xlink" x="0px" y="0px"
	 viewBox="0 0 862 478" enable-background="new 0 0 862 478" xml:space="preserve">
<polyline fill="#D11964" points="269.9,331.9 269.9,271.1 263.4,271.1 263.4,331.9 "/>
<g>
	<path fill="#F2206C" d="M0,278.9l285.2-153.3V83.9v0c0-27.7,22.5-50.2,50.2-50.2s50.2,22.5,50.2,50.2v0V134v12.5
		c0,71.6-58,129.6-129.6,129.6c-22.7,0-52.5-6.5-71.1-16.7L0,278.9z"/>
</g>
<g>
	<polygon fill="#F3C244" points="385.6,75.5 360.5,92.2 411.2,92.2 	"/>
</g>
<g>
	<polygon fill="#D11964" points="360.5,92.2 385.6,121.3 385.6,109 	"/>
</g>
<g>
	<path fill="#B21957" d="M335.8,74.9c1.5,0,2.8-1.2,2.8-2.8c0-2.9,2.3-5.2,5.2-5.2c2.9,0,5.2,2.3,5.2,5.2c0,1.5,1.2,2.8,2.8,2.8
		s2.8-1.2,2.8-2.8c0-5.9-4.8-10.8-10.8-10.8c-5.9,0-10.8,4.8-10.8,10.8C333,73.6,334.2,74.9,335.8,74.9z"/>
</g>
<g>
	<polygon fill="#CCA142" points="411.2,92.2 385.6,109 360.5,92.2 	"/>
</g>
<g>
	<path fill="#D11964" d="M202.2,266.9c57.1-10.5,83-67.7,83-127.8v-12.9L59.3,213L202.2,266.9z"/>
</g>
<g>
	<path fill="#F7418B" d="M183.4,259.8c57.1-10.5,101.9-61.1,101.9-121.3v-12.9L40.7,206.1L183.4,259.8z"/>
</g>
<g>
	<polygon fill="#F969AB" points="285.2,125.7 105.1,230.3 40.7,206.1 	"/>
</g>
<polygon fill="#F969AB" points="285.2,125.7 102.9,169.2 129.9,181.9 "/>
<g>
	<path fill="#F2206C" d="M467.7,22.1c0-12.2-9.9-22.1-22.1-22.1c-6.3,0-11.9,2.6-15.9,6.8c-4-4.2-9.7-6.8-15.9-6.8
		c-12.2,0-22.1,9.9-22.1,22.1c0,6.3,2.6,12,6.8,16l0,0l31.2,31.2l31.2-31.2l0,0C465.1,34,467.7,28.3,467.7,22.1z"/>
</g>
<g>
	<rect x="590.1" y="271.9" fill="#5FACF9" width="6.5" height="60.8"/>
</g>
<g>
	<path fill="#5FACF9" d="M860,279.8L574.8,126.6V84.8v0c0-27.7-22.5-50.2-50.2-50.2c-27.7,0-50.2,22.5-50.2,50.2v0v50.2v12.5
		c0,71.6,58,129.6,129.6,129.6c22.7,0,52.5-6.5,71.1-16.7L860,279.8z"/>
</g>
<g>
	<polygon fill="#F3C244" points="474.4,76.4 499.5,93.1 448.8,93.1 	"/>
</g>
<g>
	<polygon fill="#4B9CE0" points="499.5,93.1 474.4,122.2 474.4,109.8 	"/>
</g>
<g>
	<path fill="#4681B2" d="M524.2,75.7c-1.5,0-2.8-1.2-2.8-2.8c0-2.9-2.3-5.2-5.2-5.2c-2.9,0-5.2,2.3-5.2,5.2c0,1.5-1.2,2.8-2.8,2.8
		s-2.8-1.2-2.8-2.8c0-5.9,4.8-10.8,10.8-10.8c5.9,0,10.8,4.8,10.8,10.8C527,74.5,525.8,75.7,524.2,75.7z"/>
</g>
<g>
	<polygon fill="#CCA142" points="448.8,93.1 474.4,109.8 499.5,93.1 	"/>
</g>
<g>
	<polygon fill="#DBD9DA" points="765.5,440.3 726.6,478.3 726.6,439.4 	"/>
	<g>
		<polygon fill="#DBD9DA" points="713.8,401.3 669.8,440.3 669.8,401.3 		"/>
	</g>
	<g>
		<polygon fill="#E8E8E8" points="669.8,440.3 765.5,440.3 765.5,401.3 765.5,359.5 713.8,359.5 713.8,401.3 		"/>
	</g>
	<g>
		<polygon fill="#DBD9DA" points="145.4,401.3 189.4,440.3 189.4,401.3 		"/>
	</g>
	<g>
		<rect x="145.4" y="317" fill="#FFFFFF" width="568.4" height="84.3"/>
	</g>
	<g>
		<path fill="#5FACF9" d="M684,354.8c0-4.6-3.7-8.2-8.2-8.2c-2.3,0-4.5,1-6,2.5c-1.5-1.6-3.6-2.5-6-2.5c-4.6,0-8.2,3.7-8.2,8.2
			c0,2.3,1,4.5,2.6,6l0,0l11.6,11.6l11.6-11.6l0,0C683,359.3,684,357.2,684,354.8z"/>
	</g>
	<g>
		<path fill="#F2206C" d="M205.6,354.8c0-4.6-3.7-8.2-8.2-8.2c-2.3,0-4.5,1-6,2.5c-1.5-1.6-3.6-2.5-6-2.5c-4.6,0-8.2,3.7-8.2,8.2
			c0,2.3,1,4.5,2.6,6l0,0l11.6,11.6l11.6-11.6l0,0C204.6,359.3,205.6,357.2,205.6,354.8z"/>
	</g>
	<path fill="#FFFFFF" d="M616.7,370.9"/>
	<polygon fill="#DBD9DA" points="93.7,440.3 132.6,478.3 132.6,439.4 	"/>
	<g>
		<polygon fill="#E8E8E8" points="189.4,440.3 93.7,440.3 93.7,401.3 93.7,359.5 145.4,359.5 145.4,401.3 		"/>
	</g>
</g>
<path fill="#F2206C" d="M132.6,478.3"/>
<g>
	<path fill="#4B9CE0" d="M657.8,267.8c-57.1-10.5-83-67.7-83-127.8v-12.9l225.9,86.8L657.8,267.8z"/>
</g>
<g>
	<path fill="#97D0FF" d="M676.6,260.7c-57.1-10.5-101.9-61.1-101.9-121.3v-12.9L819.3,207L676.6,260.7z"/>
</g>
<g>
	<polygon fill="#AEDEFF" points="574.8,126.6 754.9,231.2 819.3,207 	"/>
</g>
<polygon fill="#AEDEFF" points="574.8,126.6 757.1,170.1 730.1,182.8 "/>
<g>
	<path fill="#F2206C" d="M267.2,366.9l-8.5-16.9v19h-4.1v-24.3h6.4l7.3,15.3l7.3-15.3h6.4V369H278v-19l-8.5,16.9H267.2z"/>
	<path fill="#F2206C" d="M297.9,355.8l6.6-11.1h4.5l-9.1,14.7v9.6h-4.1v-9.6l-9.1-14.7h4.5L297.9,355.8z"/>
	<path fill="#F2206C" d="M330.5,348.5V369h-4.1v-20.6H319v-3.8h18.9v3.8H330.5z"/>
	<path fill="#F2206C" d="M350.7,362.2l5.4-17.5h3.7l5.5,17.5l6.1-17.5h4.4l-8.5,24.3h-4.1l-5.1-16.6h-0.3l-5.1,16.6h-4.1l-8.5-24.3
		h4.4L350.7,362.2z"/>
	<path fill="#F2206C" d="M380,344.7h4.1V369H380V344.7z"/>
	<path fill="#F2206C" d="M401.3,348.5V369h-4.1v-20.6h-7.4v-3.8h18.9v3.8H401.3z"/>
	<path fill="#F2206C" d="M424,348.5V369h-4.1v-20.6h-7.4v-3.8h18.9v3.8H424z"/>
	<path fill="#F2206C" d="M454.3,344.7v3.9h-13v6.4h11.7v3.7h-11.7v6.5h13.4v3.9h-17.5v-24.3H454.3z"/>
	<path fill="#F2206C" d="M480.4,352.6c0,4-1.8,6.5-5.3,7.6l6.4,8.8h-5.2l-5.8-8.2h-1.1H465v8.2h-4.1v-24.3h9.1c3.7,0,6.4,0.6,8,1.9
		C479.6,347.8,480.4,349.8,480.4,352.6z M476.2,352.6c0-1.6-0.4-2.7-1.3-3.3c-0.9-0.6-2.4-0.9-4.6-0.9H465v8.7h5.1
		c2.3,0,3.9-0.4,4.7-1.1C475.7,355.3,476.2,354.2,476.2,352.6z"/>
	<path fill="#F2206C" d="M505.2,365.3c1.4,0,2.6-0.2,3.7-0.7c1-0.5,2.1-1.2,3.2-2.3l2.6,2.7c-2.6,2.9-5.7,4.3-9.5,4.3
		c-3.6,0-6.6-1.2-9-3.6c-2.4-2.4-3.6-5.4-3.6-9.1c0-3.6,1.2-6.6,3.7-9c2.5-2.4,5.5-3.6,9.1-3.6c3.9,0,7.2,1.4,9.7,4.2l-2.6,2.9
		c-1.2-1.1-2.3-1.9-3.3-2.3c-1-0.4-2.2-0.7-3.6-0.7c-2.5,0-4.5,0.8-6.2,2.4c-1.7,1.6-2.5,3.7-2.5,6.2c0,2.4,0.8,4.4,2.5,6
		C501,364.5,503,365.3,505.2,365.3z"/>
	<path fill="#F2206C" d="M539.4,352.6c0,4-1.8,6.5-5.3,7.6l6.4,8.8h-5.2l-5.8-8.2h-1.1h-4.3v8.2H520v-24.3h9.1c3.7,0,6.4,0.6,8,1.9
		C538.6,347.8,539.4,349.8,539.4,352.6z M535.2,352.6c0-1.6-0.4-2.7-1.3-3.3c-0.9-0.6-2.4-0.9-4.6-0.9h-5.2v8.7h5.1
		c2.3,0,3.9-0.4,4.7-1.1C534.7,355.3,535.2,354.2,535.2,352.6z"/>
	<path fill="#F2206C" d="M566.4,344.7v13.8c0,3.5-1,6.2-2.9,8.1c-1.9,1.9-4.4,2.8-7.4,2.8c-2.9,0-5.3-0.9-7.3-2.8
		c-2-1.9-3-4.5-3-7.9v-14h4.1v13.5c0,2.3,0.6,4.1,1.7,5.4c1.1,1.3,2.6,2,4.5,2s3.4-0.6,4.5-1.9c1.1-1.3,1.6-3.1,1.6-5.3v-13.6H566.4
		z"/>
	<path fill="#F2206C" d="M576.9,350.9c0,1,0.4,1.7,1.1,2.2c0.8,0.5,2.3,1.1,4.6,1.6c2.7,0.6,4.7,1.5,5.9,2.6
		c1.3,1.1,1.9,2.6,1.9,4.6c0,2.3-0.8,4.1-2.4,5.4c-1.6,1.3-3.7,2-6.3,2c-3.8,0-7.2-1.3-10.1-3.9l2.6-3.1c2.5,2.1,5,3.2,7.7,3.2
		c1.3,0,2.4-0.3,3.1-0.9c0.8-0.6,1.2-1.3,1.2-2.3c0-0.9-0.4-1.7-1.1-2.2s-2.2-1-4.4-1.6c-1.4-0.3-2.6-0.7-3.5-1
		c-0.9-0.4-1.8-0.8-2.5-1.4c-0.7-0.6-1.3-1.3-1.6-2.1c-0.3-0.8-0.5-1.8-0.5-2.9c0-2.1,0.8-3.9,2.3-5.2c1.6-1.3,3.6-2,6-2
		c3.3,0,6.3,0.9,8.9,2.8l-2.3,3.3c-2-1.5-4.2-2.2-6.7-2.2c-1.2,0-2.2,0.3-2.9,0.9C577.2,349.3,576.9,350,576.9,350.9z"/>
	<path fill="#F2206C" d="M596.4,369v-24.3h4.1v10.5h12.1v-10.5h4.1V369h-4.1v-10h-12.1v10H596.4z"/>
</g>
</svg>
