<?xml version="1.0" encoding="utf-8"?>
<!-- Generator: Adobe Illustrator 17.1.0, SVG Export Plug-In . SVG Version: 6.00 Build 0)  -->
<!DOCTYPE svg PUBLIC "-//W3C//DTD SVG 1.1//EN" "http://www.w3.org/Graphics/SVG/1.1/DTD/svg11.dtd">
<svg version="1.1" id="Layer_1" xmlns="http://www.w3.org/2000/svg" xmlns:xlink="http://www.w3.org/1999/xlink" x="0px" y="0px"
	 viewBox="0 0 383 60" enable-background="new 0 0 383 60" xml:space="preserve">
<path fill="#FFFFFF" d="M377.6,31.6l-1.1-1.9c-0.9-1.6-1.2-1.9-2-2.2v-0.1c1.6-0.2,2.5-1.2,2.5-2.6c0-1.5-0.9-2.6-2.9-2.6h-4.5v9.2
	h1.9v-3.8h0.3c0.8,0,1.1,0.1,1.5,0.5c0.4,0.4,0.9,1.2,1.3,1.8l0.7,1.5H377.6z M371.5,26.4v-2.5h1.7c1.3,0,1.9,0.4,1.9,1.2
	c0,0.7-0.4,1.3-1.7,1.3H371.5z M373.5,20c3.9,0,7,3.1,7,7c0,3.8-3.1,7-7,7c-3.8,0-7-3.1-7-7C366.6,23.1,369.7,20,373.5,20z
	 M373.5,18.3c-4.8,0-8.7,3.9-8.7,8.7c0,4.8,3.9,8.7,8.7,8.7c4.8,0,8.7-3.9,8.7-8.7C382.2,22.2,378.3,18.3,373.5,18.3z"/>
<path fill="#FFFFFF" d="M88.3,26.4c-3.5-1.6-5.8-2.2-7.8-2.2c-2.2,0-3.7,0.8-3.7,2.1c0,3.8,12.6,2.6,12.6,11.4c0,4.8-4,7.5-9.5,7.5
	c-4.4,0-6.5-1.1-8.9-2.4v-5.4c3.6,2.4,5.7,3.2,8.4,3.2c2.4,0,3.7-0.8,3.7-2.3c0-4.1-12.6-2.5-12.6-11.5c0-4.4,3.7-7.2,9.4-7.2
	c2.7,0,5.3,0.6,8.4,2V26.4L88.3,26.4z"/>
<path fill="#FFFFFF" d="M107.5,41.7c-0.5,0-0.9-0.3-0.9-1.1v-7.7c0-3.7-2.8-5.1-7.1-5.1c-2.6,0-5.1,0.7-7.2,2v4.3
	c1.6-1.6,4.1-2.7,6.2-2.7c2.2,0,2.9,1.2,2.8,2.7c-7,2.2-10,3-10,7c0,2.1,2,4.2,4.7,4.2c1.8,0,3.6-0.5,5.6-1.9
	c0.3,1.4,1.2,1.9,2.9,1.9c1.4,0,3.5-0.6,5-1.5v-2.9C108.3,41.6,107.9,41.7,107.5,41.7L107.5,41.7z M101.3,40.9
	c-0.8,0.7-1.9,1.2-2.8,1.2c-1,0-1.7-0.8-1.7-1.7c0-1.7,1.4-2.4,4.6-3.5V40.9L101.3,40.9z"/>
<polygon fill="#FFFFFF" points="108.8,28.1 114.5,28.1 118.1,37.3 121.7,28.1 127.3,28.1 119.6,45.2 116.6,45.2 108.8,28.1 "/>
<path fill="#FFFFFF" d="M133.5,37.3h12.1c0.2-6.1-3.9-9.5-8.7-9.5c-5.2,0-8.8,3.7-8.8,8.8c0,5.2,3.9,8.6,9.7,8.6
	c1.3,0,4.5,0,7.5-2.2v-3.4c-2.5,1.8-4.2,2.4-6.3,2.4C135.7,42.1,133.7,40.4,133.5,37.3L133.5,37.3z M137.3,30.9c2,0,3.5,1.3,3.7,3.7
	h-7.3C133.8,32.2,135.1,30.9,137.3,30.9L137.3,30.9z"/>
<path fill="#FFFFFF" d="M169.8,31.7h-6.1v6.9c0,1.6,0.9,2.7,2.5,2.7c1.1,0,2.1-0.3,3.6-1v3.9c-1.8,0.7-3.3,1-4.9,1
	c-3.6,0-6.6-1.6-6.6-6.3v-7.2H156v-1l7-7.9h0.7v5.3h6.1V31.7L169.8,31.7z"/>
<path fill="#FFFFFF" d="M177.1,30.6h0.1c1.5-1.9,3.2-2.8,5.4-2.8c3,0,6.1,1.8,6.1,6.4v10.8h-5.3v-9.6c0-2.5-1-3.7-2.7-3.7
	c-1.2,0-2.2,0.8-3.6,2.5v10.8h-5.3V20h5.3V30.6L177.1,30.6z"/>
<path fill="#FFFFFF" d="M197,37.3h12.1c0.2-6.1-3.9-9.5-8.7-9.5c-5.2,0-8.8,3.7-8.8,8.8c0,5.2,3.8,8.6,9.8,8.6c1.3,0,4.5,0,7.5-2.2
	v-3.4c-2.5,1.8-4.2,2.4-6.3,2.4C199.1,42.1,197.1,40.4,197,37.3L197,37.3z M200.8,30.9c2,0,3.4,1.3,3.7,3.7h-7.3
	C197.3,32.2,198.6,30.9,200.8,30.9L200.8,30.9z"/>
<path fill="#FFFFFF" d="M244.9,42.8c-3.5,1.7-6.1,2.4-9.8,2.4c-9.8,0-14.5-6.3-14.5-12.7c0-6.6,5.5-12.9,14.9-12.9
	c3.6,0,6.6,0.8,9,2.2v5.6c-2.7-1.5-5.5-2.6-8.5-2.6c-5.3,0-9,3.1-9,7.6c0,4.5,3.7,7.6,8.8,7.6c3.3,0,5.5-1,9-2.7V42.8L244.9,42.8z"
	/>
<path fill="#FFFFFF" d="M253.9,30.6L253.9,30.6c1.6-1.9,3.3-2.8,5.5-2.8c3,0,6.1,1.8,6.1,6.4v10.8h-5.3v-9.6c0-2.5-1.1-3.7-2.7-3.7
	c-1.2,0-2.2,0.8-3.6,2.5v10.8h-5.3V20h5.3V30.6L253.9,30.6z"/>
<polygon fill="#FFFFFF" points="269.2,28.1 274.5,28.1 274.5,44.9 269.2,44.9 269.2,28.1 "/>
<path fill="#FFFFFF" d="M274.8,22.6c0,1.6-1.3,3-2.9,3c-1.6,0-2.9-1.3-2.9-3c0-1.6,1.3-2.9,2.9-2.9C273.5,19.6,274.8,21,274.8,22.6
	L274.8,22.6z"/>
<polygon fill="#FFFFFF" points="278.4,20 283.6,20 283.6,44.9 278.4,44.9 278.4,20 "/>
<path fill="#FFFFFF" d="M299.1,20v8.7c-1.4-0.7-2.8-1-4.4-1c-4.9,0-8.2,3.6-8.2,8.7c0,5,3.4,8.7,7.9,8.7c1.8,0,3.1-0.5,4.7-1.6v1.3
	h5.3V20H299.1L299.1,20z M299.1,40.4c-1.1,0.9-2,1.3-3.1,1.3c-2.4,0-4.1-2-4.1-5.1c0-3.3,1.6-5.3,4.3-5.3c0.9,0,2.1,0.4,2.9,0.9
	V40.4L299.1,40.4z"/>
<path fill="#FFFFFF" d="M313.4,33h0.1c1.5-3.6,3.3-5.2,5.4-5.2c1,0,1.9,0.4,3.5,1.5l-1.4,4.7c-1.4-0.9-2.3-1.2-3.1-1.2
	c-1.9,0-3.1,1.8-4.4,4.9v7.3h-5.3V28.1h5.3V33L313.4,33z"/>
<path fill="#FFFFFF" d="M328.2,37.3h12.1c0.3-6.1-3.8-9.5-8.7-9.5c-5.2,0-8.8,3.7-8.8,8.8c0,5.2,3.9,8.6,9.7,8.6
	c1.3,0,4.5,0,7.5-2.2v-3.4c-2.4,1.8-4.1,2.4-6.2,2.4C330.5,42.1,328.4,40.4,328.2,37.3L328.2,37.3z M332,30.9c2,0,3.5,1.3,3.7,3.7
	h-7.3C328.5,32.2,330,30.9,332,30.9L332,30.9z"/>
<path fill="#FFFFFF" d="M348.3,30.5c1.6-1.9,3.2-2.7,5.5-2.7c2.5,0,6.1,1.5,6.1,6.4v10.8h-5.3V34.7c0-2.4-1.1-3.4-2.6-3.4
	c-1.3,0-2.3,0.7-3.7,2.7v10.9h-5.3V28.1h5.3V30.5L348.3,30.5z"/>
<path fill="#FFFFFF" d="M52.3,14.7c2.5-2.9,3.6-4.3,3.3-5c-0.2-0.6-0.8-1-1.6-1.4C53,8,51.7,7.8,51.1,8.2c-0.2,0.1-0.6,0.5-1.4,1.5
	l-0.8,0.9h0c-0.5-0.5-1-1-1.6-1.5c-3.8-3.3-8.4-5.5-13.5-6.2c-2-2.1-4.6-3.1-7.2-2.7c-2.2,0.3-4.1,1.6-5.4,3.7
	c-5.1,1.6-9.7,4.5-13.4,8.5l0,0c-0.8-0.2-2.6,0.1-3.7,0.7c-0.6,0.3-1,0.8-1.1,1.2C3,14.5,3.2,15,4.6,16.6h0
	c-3.6,5.7-5.1,12.5-4.4,19c0.8,6.7,4,12.9,9,17.2c1.8,1.5,3.7,2.8,5.8,3.9l0,0c3,1.5,6.4,2.5,9.9,3c7.5,1,14.7-0.6,20.7-4.1l0,0
	c0.8-0.4,1-1.3,0.7-2.2l-0.1-0.3c-1.5-3.5-6.2-14-3.6-23.6c1.1-4,4.2-8.3,7-11.6h0c2.9,4.5,4.4,9.9,4.2,15.1
	c-0.2,5-1.8,9.6-4.8,13.5l0,0c-0.1,0.1-0.1,0.2-0.1,0.4c0,0.1,0,0.1,0,0.2l0.3,0.7c0.1,0.2,0.3,0.3,0.6,0.3c0.2,0,0.3-0.1,0.4-0.2h0
	C57.8,38.2,58.7,24.8,52.3,14.7L52.3,14.7z M18.2,37.4c-0.6,3.6-1.5,8.5-0.7,16h0c-2-1-3.9-2.3-5.5-3.7c-4.6-4-7.7-9.5-8.7-15.3
	c-1-5.7-0.1-11.4,2.6-16.3h0h0l0,0c1,1.1,2.3,2.3,3.6,3.6c3.2,3.2,6.8,6.8,8.6,9.3C19.1,32.4,18.8,34.3,18.2,37.4z M46,13.6
	c-5.9,5.9-11.4,9.1-16.5,9.5c-3.9,0.3-8-0.9-12.2-3.4c-3.5-2.1-6.2-4.7-7.8-6.2l-0.2-0.2h0l0,0h0c2.9-3.1,6.6-5.4,10.6-6.6
	c0,0,0,0,0,0l0,0c0,0,0,0,0,0c-0.4,1.6-0.5,3.3-0.2,5c0.5,3.1,2.1,5.8,4.3,7.4c1.8,1.3,3.9,1.8,5.9,1.5c2-0.3,3.8-1.5,5.1-3.2
	c1.7-2.3,2.3-5.3,1.8-8.4c-0.1-0.6-0.2-1.1-0.4-1.7l0,0c3,1.1,5.7,2.8,8.1,4.9C45.1,12.7,45.6,13.1,46,13.6L46,13.6z"/>
</svg>
